SplineFontDB: 3.0
FontName: Parnassus
FullName: Parnassus
FamilyName: Parnassus
Weight: Book
Copyright: GPL with font exception
Version: 0.1.8955
ItalicAngle: 0
UnderlinePosition: -99
UnderlineWidth: 49
Ascent: 800
Descent: 200
sfntRevision: 0x00001999
LayerCount: 2
Layer: 0 0 "Terug"  1
Layer: 1 0 "Fore"  0
XUID: [1021 82 1858240067 9587329]
UniqueID: 4073509
FSType: 0
OS2Version: 3
OS2_WeightWidthSlopeOnly: 0
OS2_UseTypoMetrics: 1
CreationTime: 1252826347
ModificationTime: 1373796104
PfmFamily: 17
TTFWeight: 400
TTFWidth: 5
LineGap: 90
VLineGap: 0
Panose: 2 0 5 3 0 0 0 0 0 0
OS2TypoAscent: 800
OS2TypoAOffset: 0
OS2TypoDescent: -200
OS2TypoDOffset: 0
OS2TypoLinegap: 90
OS2WinAscent: 1370
OS2WinAOffset: 0
OS2WinDescent: 1487
OS2WinDOffset: 0
HheadAscent: 1370
HheadAOffset: 0
HheadDescent: -1487
HheadDOffset: 0
OS2SubXSize: 650
OS2SubYSize: 699
OS2SubXOff: 0
OS2SubYOff: 140
OS2SupXSize: 650
OS2SupYSize: 699
OS2SupXOff: 0
OS2SupYOff: 479
OS2StrikeYSize: 49
OS2StrikeYPos: 258
OS2Vendor: 'PfEd'
OS2CodePages: 00000001.00000000
OS2UnicodeRanges: 00000001.10000000.00000000.00000000
MarkAttachClasses: 1
DEI: 91125
LangName: 1033 
Encoding: UnicodeBmp
UnicodeInterp: none
NameList: Adobe Glyph List
DisplaySize: -96
AntiAlias: 1
FitToEm: 1
WinInfo: 45 9 5
BeginPrivate: 5
BlueValues 31 [-22 0 250 270 415 415 486 486]
OtherBlues 11 [-178 -178]
BlueScale 8 0.039625
BlueShift 1 9
ExpansionFactor 4 0.06
EndPrivate
BeginChars: 65537 73

StartChar: period
Encoding: 46 46 0
Width: 114
Flags: W
HStem: 70 116<13.5779 101.829>
VStem: 0 115<83.5779 172.422>
LayerCount: 2
Fore
SplineSet
0 128 m 0
 0 160 27 186 58 186 c 0
 90 186 115 159 115 128 c 0
 115 97 89 70 58 70 c 0
 27 70 0 96 0 128 c 0
EndSplineSet
Validated: 1
EndChar

StartChar: zero
Encoding: 48 48 1
Width: 385
VWidth: 1250
Flags: W
HStem: 0 31.25<157.775 229.429> 468.75 31.25<154.624 228.937>
VStem: 0 130<143.554 356.446> 255 130<143.554 356.446>
LayerCount: 2
Fore
SplineSet
192.5 468.75 m 3
 136.25 468.75 130 418.75 130 250 c 3
 130 81.25 137.5 31.25 193.75 31.25 c 0
 250 31.25 255 81.25 255 250 c 3
 255 418.75 248.75 468.75 192.5 468.75 c 3
193.75 500 m 4
 318.75 500 385 350 385 250 c 3
 385 150 318.75 0 193.75 0 c 0
 68.75 0 0 150 0 250 c 3
 0 350 68.75 500 193.75 500 c 4
EndSplineSet
Validated: 1
EndChar

StartChar: one
Encoding: 49 49 2
Width: 335
VWidth: 0
Flags: W
HStem: 0 52<27.663 113.181 246.819 332.337>
VStem: 114 132<56.7538 404>
LayerCount: 2
Fore
SplineSet
303 0 m 26
 57 0 l 26
 42 0 26 7 26 22 c 0
 26 44 56 47 74 52 c 0
 90 57 114 58 114 80 c 0
 114 138 114 324 114 404 c 1
 81 352 51 293 22 242 c 0
 20 238 14 236 10 236 c 0
 6 236 1 240 1 246 c 0
 1 253 3 257 8 269 c 0
 33 334 66 402 98 473 c 0
 103 485 108 492 123 492 c 2
 219 492 l 6
 227 492 234 489 239 481 c 0
 244 474 246 465 246 456 c 2
 246 80 l 0
 246 58 270 57 286 52 c 0
 304 47 334 44 334 22 c 0
 334 7 318 0 303 0 c 26
EndSplineSet
Validated: 1
EndChar

StartChar: two
Encoding: 50 50 3
Width: 356
VWidth: 0
Flags: W
HStem: 0 104<211.427 279.026> 458 34<94.7623 199.3>
VStem: -27 11<16.0239 39.7988> 1 130<314.125 416.095> 225 121<278.907 411.057>
LayerCount: 2
Fore
SplineSet
-22 16 m 3
 -25 16 -27 18 -27 24 c 0
 -27 67 -13 103 15 133 c 0
 43 162 78 191 129 219 c 0
 167 240 186 259 199 274 c 0
 219 295 225 319 225 363 c 3
 225 412 218 425 206 437 c 0
 197 446 176 458 153 458 c 0
 126 458 101 449 78 429 c 1
 78.425504489 429.011197487 78.8481251528 429.016752706 79.2678732232 429.016752706 c 0
 116.334043841 429.016752706 131 385.697667863 131 359 c 0
 131 322 97 297 63 297 c 0
 30 297 1 330 1 358 c 0
 1 393 16 427 49 453 c 0
 76 475 116 492 164 492 c 0
 254 492 346 429 346 340 c 4
 346 310 330 282 311 263 c 0
 271 222 223 218 164 195 c 0
 139 186 129 182 113 170 c 1
 113.662791012 170.019493853 114.327102065 170.029107438 114.992762779 170.029107438 c 0
 148.474312654 170.029107438 185.370383213 145.707592201 204 131 c 0
 220 118 249 104 272 104 c 0
 301 104 326 129 339 154 c 0
 341 159 345 161 349 161 c 0
 354 161 357 158 357 152 c 0
 357 149 356 147 355 144 c 0
 346 125 325 81 309 55 c 0
 283 14 247 0 218 0 c 0
 190 0 159 10 130 41 c 0
 116 55 80 79 55 79 c 0
 40 79 25 75 10 66 c 0
 -1 59 -11 47 -16 24 c 0
 -17 18 -19 16 -22 16 c 3
EndSplineSet
Validated: 1
EndChar

StartChar: three
Encoding: 51 51 4
Width: 328
VWidth: 0
Flags: W
HStem: -1 31<84.3707 186.09> 233 34<66.0095 179.995> 470 31<84.3707 186.09>
VStem: 0 126<69.3452 163.319 336.681 430.655> 214 115<59.3532 197.262 302.595 440.647>
CounterMasks: 1 e0
LayerCount: 2
Fore
SplineSet
210 250 m 1
 263 241 329 208 329 130 c 3
 329 41 255 -1 159 -1 c 3
 83 -1 0 41 0 111 c 3
 0 143 25 182 62 182 c 27
 97 182 126 156 126 119 c 3
 126 89.3213938649 107.668685492 57.8096562789 71.8835530286 57.8096562789 c 0
 70.2902755588 57.8096562789 68.6623987332 57.8721231744 67 58 c 1
 90 35 126 30 144 30 c 3
 191 30 214 68 214 131 c 3
 214 212 173 233 108 233 c 3
 79 233 66 237 66 250 c 3
 66 263 79 267 108 267 c 3
 173 267 214 278 214 369 c 3
 214 432 191 470 144 470 c 3
 126 470 90 465 67 442 c 1
 68.6623987332 442.127876826 70.2902755588 442.190343721 71.8835530286 442.190343721 c 0
 107.668685492 442.190343721 126 410.678606135 126 381 c 3
 126 344 97 318 62 318 c 27
 25 318 0 357 0 389 c 3
 0 459 83 501 159 501 c 3
 255 501 329 459 329 370 c 3
 329 292 263 259 210 250 c 1
EndSplineSet
Validated: 1
EndChar

StartChar: four
Encoding: 52 52 5
Width: 426
VWidth: 0
Flags: W
HStem: 0 45.791<108.206 194.952 309.042 395.794> 134.375 38.125<50.125 195.75 308.315 426.782>
VStem: 195.75 112.565<50.5071 134.375 172.407 278.534>
LayerCount: 2
Fore
SplineSet
195.75 273.75 m 1
 239.5 306.875 280.75 359.375 308.25 411.25 c 1
 308.25 313.60546875 308.330078125 253.209960938 308.315429688 172.407226562 c 1
 338.099609375 172.463867188 367.286132812 172.5 402.625 172.5 c 0
 414.705078125 172.5 426.791015625 165.205078125 426.791015625 153.125 c 0
 426.791015625 141.764648438 415.860351562 134.375 404.5 134.375 c 2
 308.30078125 134.375 l 1
 308.291015625 115.353515625 308.2734375 95.3076171875 308.25 73.75 c 0
 308.224609375 52.1318359375 331.58203125 50.5283203125 348.38671875 45.791015625 c 0
 366.09375 40.7998046875 396.375 41.341796875 396.375 19.375 c 0
 396.375 4.791015625 379.46484375 0 365.125 0 c 2
 138.875 0 l 2
 124.53515625 0 107.625 4.791015625 107.625 19.375 c 0
 107.625 41.341796875 137.905273438 40.80078125 155.61328125 45.791015625 c 0
 172.41796875 50.5283203125 195.75 52.1376953125 195.75 73.75 c 2
 195.75 134.375 l 1
 20.75 134.375 l 2
 9.8896484375 134.375 0.75 142.544921875 0.75 153.75 c 0
 0.75 165.208984375 7.0625 173.8359375 16.375 186.875 c 0
 85.125 283.125 105.125 331.875 140.125 495 c 1
 164.5 480 200.125 463.125 223.875 463.125 c 0
 273.5625 463.125 305.64453125 481.25 337 495 c 1
 242.625 414.375 102.625 254.375 50.125 171.875 c 1
 111.499023438 171.875 146.893554688 171.987304688 195.75 172.1171875 c 1
 195.75 273.75 l 1
EndSplineSet
EndChar

StartChar: five
Encoding: 53 53 6
Width: 340
VWidth: 0
Flags: W
HStem: 0 28<95.6677 183.205> 61.8218 129.178<60.9531 119.96> 286 35<105.453 193.49> 372 123<78.0469 201.751>
VStem: 2 135<77.4033 167.084> 47 30<300 372> 218 122<90.0541 246.797>
LayerCount: 2
Fore
SplineSet
2 118 m 3xfa
 2 155 37 191 75 191 c 3
 110 191 137 160 137 124 c 19xfa
 137 78.6993204614 102.892217729 61.8217928155 77.3452645335 61.8217928155 c 0
 70.7475270319 61.8217928155 64.7207784318 62.9474876384 60 65 c 1
 79 47 117 28 146 28 c 3
 191 28 218 66 218 167 c 3
 218 242 198 286 162 286 c 3
 121 286 81 254 47 228 c 9
 47 511 l 17
 88 501 130 495 180 495 c 3
 222 495 271 503 309 511 c 1
 292 433 214 372 77 372 c 1
 77 355 77 317 77 300 c 1xf6
 108 318 153 321 163 321 c 3
 272 321 340 259 340 168 c 27
 340 72 256 0 160 0 c 3
 84 0 2 38 2 118 c 3xfa
EndSplineSet
Validated: 1
EndChar

StartChar: six
Encoding: 54 54 7
Width: 333
VWidth: 0
Flags: W
HStem: -0.5 31.75<150.253 218.598> 240 34.4805<142.763 283.987> 465 29.5<156.058 256.425>
VStem: 0.3125 117.5<120.742 368.653> 202.301 138.393<329.614 436.538> 244.062 107.5<56.9608 221.861>
LayerCount: 2
UndoRedoHistory
Layer: 1
Undoes
EndUndoes
Redoes
EndRedoes
EndUndoRedoHistory
Fore
SplineSet
0.3125 250 m 1xf4
 2.861328125 426.9921875 105 494.5 182.8125 494.5 c 1
 327.119140625 494.5 340.693359375 416.6875 340.693359375 377.313476562 c 0
 340.693359375 342.401367188 311.153320312 309.620117188 267.61328125 309.620117188 c 0
 236.341796875 309.620117188 202.30078125 338.76953125 202.30078125 382.120117188 c 0xf8
 202.30078125 425.404296875 235.3125 455 257.8125 455 c 1
 247.036132812 462.094726562 227 465 211.5625 465 c 3
 167.8125 465 131.7265625 442.802734375 122.341796875 413.0078125 c 0
 113.125 383.749023438 117.5 268.749023438 117.5 242.5 c 1
 135.336914062 260.336914062 186.557617188 274.48046875 230.474609375 274.48046875 c 0
 337.5 274.48046875 351.5625 192.499023438 351.5625 136.25 c 0
 351.5625 73.4375 324.619140625 -0.5 180.869140625 -0.5 c 0
 89.619140625 -0.5 0.3125 74.9990234375 0.3125 250 c 1xf4
182.143554688 31.25 m 0
 204.0625 31.25 244.0625 47.5 244.0625 127.5 c 0xf4
 244.0625 215 213.91796875 240 191.5625 240 c 0
 156.232421875 240 117.8125 223.75 117.8125 141.25 c 3
 117.8125 52.5 163.084960938 31.25 182.143554688 31.25 c 0
EndSplineSet
EndChar

StartChar: seven
Encoding: 55 55 8
Width: 360
VWidth: 0
Flags: W
HStem: 0 21G<34.8438 61.875 225.715 244.621> 266.25 21G<8.95068 16.3555> 329.375 115<188.854 287.504> 382.5 111.25<89.5986 172.922> 382.5 85.3652<45.4672 124.774>
VStem: 0 28.2305<266.36 355.448>
LayerCount: 2
Fore
SplineSet
19.375 0 m 1xe4
 104.375 88.125 213.75 235 257.5 341.875 c 1
 243.125 334.375 236.875 329.375 209.583984375 329.375 c 3xe4
 168.124023438 329.375 138.32421875 382.5 97.708984375 382.5 c 3xd4
 40.1748046875 382.5 31.25 349.478515625 28.23046875 278.228515625 c 0
 27.935546875 271.275390625 20.2109375 266.25 12.5 266.25 c 27
 5.4013671875 266.25 0 272.381835938 0 279.48046875 c 27
 0 358.6171875 0 403.2578125 0 482.39453125 c 27
 0 491.674804688 7.28125 499.48046875 16.5615234375 499.48046875 c 19
 24.361328125 499.48046875 28.5009765625 493.108398438 30.4189453125 489.482421875 c 0
 39.375 472.552734375 60.2587890625 467.865234375 68.4375 467.865234375 c 3xcc
 101.451171875 467.865234375 108.125 493.75 152.708984375 493.75 c 3xd4
 193.134765625 493.75 218.740234375 444.375 260.208984375 444.375 c 3
 292.46484375 444.375 320.625 455.989257812 331.875 477.240234375 c 0
 340.256835938 493.072265625 361.875 486.76953125 355.625 469.115234375 c 0
 284.583984375 268.90625 255.24609375 173.801757812 233.99609375 0 c 1
 217.43359375 13.802734375 182.186523438 28.125 146.25 28.125 c 27
 95.5673828125 28.125 50.3125 13.75 19.375 0 c 1xe4
EndSplineSet
EndChar

StartChar: eight
Encoding: 56 56 9
Width: 328
VWidth: 0
Flags: W
HStem: -0.568359 36.249<82.6166 210.506> 463.75 36.25<120.119 248.21>
VStem: 2.5 39.6875<71.5639 164.418> 5 79.375<342.926 422.646> 246.25 79.375<76.7852 156.506> 288.438 39.6875<335.013 428.648>
LayerCount: 2
Fore
SplineSet
325.625 151.931640625 m 0xc8
 325.625 56.2548828125 238.450195312 -0.568359375 150 -0.568359375 c 0
 67.1875 -0.568359375 2.5 51.9306640625 2.5 118.180664062 c 0xe8
 2.5 174.047851562 32.939453125 199.360351562 73.7314453125 223.75 c 1
 28.2939453125 250.572265625 5 295.650390625 5 347.5 c 0
 5 443.17578125 92.1748046875 500 180.625 500 c 0
 263.4375 500 328.125 447.5 328.125 381.25 c 0xd4
 328.125 325.383789062 297.684570312 300.071289062 256.893554688 275.681640625 c 1
 302.331054688 248.858398438 325.625 203.78125 325.625 151.931640625 c 0xc8
124.26171875 201.284179688 m 1
 73.9189453125 177.005859375 42.1875 162.79296875 42.1875 114.430664062 c 0
 42.1875 76.9306640625 87.1875 35.6806640625 144.6875 35.6806640625 c 0
 178.545898438 35.6806640625 246.25 52.1328125 246.25 115.055664062 c 4
 246.25 163.483398438 187.13671875 178.5234375 124.26171875 201.284179688 c 1
206.36328125 298.147460938 m 1
 256.706054688 322.423828125 288.4375 336.638671875 288.4375 385 c 0
 288.4375 422.5 244.375 463.75 185.9375 463.75 c 0
 152.079101562 463.75 84.375 447.298828125 84.375 384.375 c 0xd4
 84.375 335.947265625 143.48828125 320.907226562 206.36328125 298.147460938 c 1
EndSplineSet
Validated: 1
EndChar

StartChar: nine
Encoding: 57 57 10
Width: 333
VWidth: 0
Flags: W
HStem: -0.5 29.499<95.45 195.817> 219.52 34.4795<67.8877 209.112> 462.749 31.751<133.277 201.622>
VStem: 0.3125 107.5<272.138 437.038> 11.1816 138.393<57.462 164.385> 234.062 117.5<125.346 373.257>
LayerCount: 2
UndoRedoHistory
Layer: 1
Undoes
EndUndoes
Redoes
EndRedoes
EndUndoRedoHistory
Fore
SplineSet
351.5625 243.999023438 m 1xf4
 349.013671875 67.0068359375 246.875 -0.5 169.0625 -0.5 c 1
 24.755859375 -0.5 11.181640625 77.3125 11.181640625 116.685546875 c 0
 11.181640625 151.59765625 40.7216796875 184.37890625 84.26171875 184.37890625 c 0
 115.533203125 184.37890625 149.57421875 155.229492188 149.57421875 111.87890625 c 0xec
 149.57421875 68.5947265625 116.5625 38.9990234375 94.0625 38.9990234375 c 1
 104.838867188 31.904296875 124.875 28.9990234375 140.3125 28.9990234375 c 3
 184.0625 28.9990234375 220.1484375 51.1962890625 229.533203125 80.9912109375 c 0
 238.75 110.25 234.375 225.25 234.375 251.499023438 c 1
 216.538085938 233.662109375 165.317382812 219.51953125 121.400390625 219.51953125 c 0
 14.375 219.51953125 0.3125 301.5 0.3125 357.749023438 c 0
 0.3125 420.561523438 27.255859375 494.5 171.005859375 494.5 c 0
 262.255859375 494.5 351.5625 419 351.5625 243.999023438 c 1xf4
169.731445312 462.749023438 m 0
 147.8125 462.749023438 107.8125 446.499023438 107.8125 366.499023438 c 0xf4
 107.8125 278.999023438 137.95703125 253.999023438 160.3125 253.999023438 c 0
 195.642578125 253.999023438 234.0625 270.249023438 234.0625 352.749023438 c 3
 234.0625 441.499023438 188.790039062 462.749023438 169.731445312 462.749023438 c 0
EndSplineSet
EndChar

StartChar: noteheads.sM1
Encoding: 57621 57621 11
Width: 645
Flags: W
HStem: -140 32<303.091 392.097> 118 32<242.057 332.493>
VStem: 0 38<-174.994 173.994> 74 38<-174.994 -28 47 173.994> 534 38<-174.994 -38 39 173.994> 608 38<-174.994 173.994>
LayerCount: 2
Fore
SplineSet
0 160 m 2
 0 166 9 174 19 174 c 0
 30 174 38 167 38 161 c 0
 38 142 38 -155 38 -161 c 0
 38 -167 30 -175 19 -175 c 0
 8 -175 0 -170 0 -161 c 2
 0 160 l 2
280 118 m 0
 264 118 250 112 239 99 c 0
 228 86 223 72 223 57 c 0
 223 37 228 16 238 -9 c 0
 248 -34 263 -56 284 -77 c 0
 305 -98 329 -108 354 -108 c 0
 370 -108 385 -102 396 -89 c 0
 407 -76 411 -62 411 -47 c 0
 411 -27 406 -6 396 19 c 0
 386 44 372 66 351 87 c 0
 330 108 305 118 280 118 c 0
112 -161 m 2
 112 -167 104 -175 93 -175 c 0
 82 -175 74 -170 74 -161 c 2
 74 160 l 2
 74 166 83 174 93 174 c 0
 104 174 112 167 112 161 c 2
 112 47 l 1
 120 74 138 96 163 113 c 0
 201 138 252 150 316 150 c 0
 388 150 443 135 482 104 c 0
 508 83 525 61 534 39 c 1
 534 160 l 2
 534 166 543 174 553 174 c 0
 564 174 572 167 572 161 c 0
 572 142 572 -155 572 -161 c 0
 572 -167 564 -175 553 -175 c 0
 542 -175 534 -170 534 -161 c 2
 534 -38 l 1
 525 -64 508 -86 483 -103 c 0
 445 -128 394 -140 330 -140 c 0
 258 -140 203 -125 164 -94 c 0
 138 -73 121 -50 112 -28 c 1
 112 -161 l 2
646 -161 m 2
 646 -167 638 -175 627 -175 c 0
 616 -175 608 -170 608 -161 c 2
 608 160 l 2
 608 166 617 174 627 174 c 0
 638 174 646 167 646 161 c 2
 646 -161 l 2
EndSplineSet
Validated: 1
EndChar

StartChar: clefs.C
Encoding: 57622 57622 12
Width: 670
VWidth: 750
Flags: W
HStem: -526.875 43.125<366.766 496.711> -90.625 38.75<394.262 485.367> 49.375 38.75<394.835 485.321> 481.25 43.125<366.765 496.711>
VStem: 0 106.25<-518.75 518.75> 187.5 31.25<-518.75 -18.2787 15.7787 518.75> 273.832 156.875<-439.151 -331.9 329.401 436.651> 548.207 120<-407.002 -173.094 170.593 404.502>
LayerCount: 2
Fore
SplineSet
187.5 -521.25 m 1
 187.5 518.75 l 1
 218.75 518.75 l 1
 218.75 15.779296875 l 1
 277.5703125 65.298828125 316.271484375 129.623046875 334.85546875 208.75 c 1
 353.6484375 159.838867188 378.33984375 77.9736328125 444.51953125 78 c 0
 507.83984375 78 548.20703125 208.010742188 548.20703125 275.625 c 0
 548.20703125 366.141601562 519.78515625 493.849609375 448.89453125 495.5 c 0
 414.775390625 496.293945312 367.63671875 479.627929688 345.14453125 464.25 c 1
 409.51953125 469.25 430.70703125 431.3671875 430.70703125 381.875 c 0
 430.69140625 339.740234375 398.25390625 303.75 355.625 303.75 c 0
 310.8515625 303.75 273.83203125 342.383789062 273.83203125 386.875 c 0
 273.83203125 430.591796875 291.3671875 464.438476562 326.4375 488.4140625 c 0
 361.5078125 512.391601562 402.6953125 524.37890625 450 524.375 c 4
 507.462890625 524.375976562 558.1953125 502.384765625 602.19921875 458.40234375 c 0
 646.20703125 414.418945312 668.208984375 355.16015625 668.20703125 280.625 c 0
 668.20703125 220.375 647.55859375 166.76953125 606.255859375 119.8125 c 0
 564.95703125 72.853515625 521.0234375 49.375 474.45703125 49.375 c 0
 434.51953125 49.375 383.4921875 54.791015625 364.45703125 65.625 c 1
 350.501953125 36.7373046875 337.728515625 15.34765625 311.478515625 -1.25 c 1
 337.728515625 -17.84765625 350.501953125 -39.2373046875 364.45703125 -68.125 c 1
 383.4921875 -57.291015625 434.51953125 -51.875 474.45703125 -51.875 c 0
 521.0234375 -51.875 564.95703125 -75.353515625 606.255859375 -122.3125 c 0
 647.55859375 -169.26953125 668.20703125 -222.875 668.20703125 -283.125 c 0
 668.208984375 -357.66015625 646.20703125 -416.918945312 602.19921875 -460.90234375 c 0
 558.1953125 -504.884765625 507.462890625 -526.875976562 450 -526.875 c 0
 402.6953125 -526.87890625 361.5078125 -514.891601562 326.4375 -490.9140625 c 0
 291.3671875 -466.938476562 273.83203125 -433.091796875 273.83203125 -389.375 c 0
 273.83203125 -344.883789062 310.849609375 -306.25 355.625 -306.25 c 0
 398.25390625 -306.25 430.69140625 -342.240234375 430.70703125 -384.375 c 0
 430.70703125 -433.8671875 409.51953125 -471.75 345.14453125 -466.75 c 1
 367.63671875 -482.127929688 414.775390625 -498.793945312 448.89453125 -498 c 0
 519.78515625 -496.349609375 548.20703125 -368.642578125 548.20703125 -278.125 c 0
 548.20703125 -210.509765625 507.83984375 -80.5 444.51953125 -80.5 c 0
 378.33984375 -80.4736328125 353.6484375 -162.338867188 334.85546875 -211.25 c 1
 316.271484375 -132.123046875 277.5703125 -67.798828125 218.75 -18.279296875 c 1
 218.75 -521.25 l 1
 187.5 -521.25 l 1
-0 -518.75 m 25
 -0 518.75 l 1
 106.25 518.75 l 1
 106.25 -518.75 l 1
 -0 -518.75 l 25
EndSplineSet
Validated: 33
EndChar

StartChar: clefs.F
Encoding: 57623 57623 13
Width: 785
VWidth: 498
Flags: W
HStem: -165.73 110<570.509 646.991> -79.4805 187.5<58.5344 177.139> 84.2695 110<570.509 646.991> 247.101 35<140.555 273.056>
VStem: 0 45.625<70.2666 154.197> 363.75 137.5<-168.49 98.5422> 553.75 110<-148.971 -72.4898 101.029 177.51>
LayerCount: 2
Fore
SplineSet
553.75 -110.73046875 m 0x9e
 553.754882812 -95.73046875 559.170898438 -82.814453125 570 -71.98046875 c 0
 580.834960938 -61.142578125 593.750976562 -55.7255859375 608.75 -55.73046875 c 0
 623.750976562 -55.73046875 636.66796875 -61.146484375 647.5 -71.98046875 c 0
 658.340820312 -82.814453125 663.7578125 -95.73046875 663.75 -110.73046875 c 0
 663.75 -125.731445312 658.333984375 -138.6484375 647.5 -149.48046875 c 0
 636.666015625 -160.315429688 623.75 -165.731445312 608.75 -165.73046875 c 0
 593.75 -165.73046875 580.833984375 -160.314453125 570 -149.48046875 c 0
 559.166015625 -138.646484375 553.75 -125.73046875 553.75 -110.73046875 c 0x9e
553.75 139.26953125 m 0
 553.754882812 154.270507812 559.170898438 167.1875 570 178.01953125 c 0
 580.834960938 188.85546875 593.750976562 194.271484375 608.75 194.26953125 c 0
 623.750976562 194.26953125 636.66796875 188.853515625 647.5 178.01953125 c 0
 658.340820312 167.185546875 663.7578125 154.26953125 663.75 139.26953125 c 0
 663.75 124.26953125 658.333984375 111.353515625 647.5 100.51953125 c 0
 636.666015625 89.685546875 623.75 84.26953125 608.75 84.26953125 c 0x3e
 593.75 84.271484375 580.833984375 89.6884765625 570 100.51953125 c 0
 559.166015625 111.357421875 553.75 124.2734375 553.75 139.26953125 c 0
45.625 70.2666015625 m 1
 66.25 106.516601562 105.833984375 108.02734375 130 108.01953125 c 0
 175.16796875 108.01953125 216.25 63.474609375 216.25 18.01953125 c 0
 216.25 -33.7919921875 169.668945312 -79.48046875 117.5 -79.48046875 c 0x5e
 51.5283203125 -79.48046875 0 -20.9765625 0 46.76953125 c 0
 0 113.435546875 16.875 165.103515625 55.625 211.76953125 c 0
 94.375 258.435546875 151.041015625 282.93359375 224.375 282.100585938 c 0
 311.041015625 281.266601562 380.416015625 253.435546875 428.75 191.76953125 c 0
 477.083984375 130.1015625 501.25 54.26953125 501.25 -35.73046875 c 0
 501.25 -99.896484375 488.75 -159.271484375 463.75 -213.85546875 c 0
 438.75 -268.439453125 403.125 -316.1484375 356.875 -356.98046875 c 0
 310.625 -397.814453125 261.875 -433.021484375 210.625 -462.60546875 c 0
 159.375 -492.189453125 101.25 -519.896484375 36.25 -545.73046875 c 0
 27.12109375 -549.381835938 19.408203125 -548.53515625 13.1103515625 -543.190429688 c 0
 6.8115234375 -537.845703125 4.294921875 -531.03125 5.55859375 -522.747070312 c 0
 6.822265625 -514.461914062 12.0517578125 -508.581054688 21.25 -505.10546875 c 0
 136.942382812 -461.389648438 209.158203125 -399.698242188 275.625 -318.4609375 c 0
 320.625 -263.4609375 363.75 -129.934570312 363.75 -10.73046875 c 0
 363.75 111.73046875 320.625 247.100585938 217.5 247.100585938 c 0
 173.333984375 247.100585938 117.291015625 229.016601562 90.625 194.016601562 c 0
 63.958984375 159.016601562 45.625 107.766601562 45.625 70.2666015625 c 1
EndSplineSet
EndChar

StartChar: clefs.G
Encoding: 57624 57624 14
Width: 660
Flags: W
HStem: -690.372 35.1201<203.786 334.688> -592.166 201.49<139.773 264.596> -259.963 39.7588<246.163 389.929 433.521 461.81> 162.649 125.367<381.828 482.113>
VStem: -0.151367 92.9795<-38.4384 146.426> 84.127 222.677<-552.176 -437.383> 192.553 44.7539<-47.0685 99.3418> 196.5 71.25<751.081 911.035> 410.578 41.7188<-579.814 -295.161> 417.75 55<757.582 970.641> 578.779 80.6826<-86.8162 62.1849>
LayerCount: 2
Fore
SplineSet
267.755859375 -101.90625 m 0xfa20
 244.99609375 -89.220703125 227.018554688 -70.71484375 213.82421875 -46.390625 c 0
 198.204101562 -17.591796875 192.552734375 5.8046875 192.552734375 38.677734375 c 0
 192.552734375 89.0146484375 203.509765625 133.844726562 225.426757812 173.169921875 c 0
 249.12890625 215.705078125 282.451171875 246.856445312 325.388671875 266.625976562 c 1
 298.818359375 424.61328125 l 1
 219.4140625 336.662109375 152.875976562 235.513671875 112.364257812 143.1640625 c 0
 99.33984375 113.47265625 92.828125 77.87890625 92.828125 36.37890625 c 0
 92.828125 -118.75 189 -220.204101562 363.595703125 -220.204101562 c 0
 372.213867188 -220.204101562 380.993164062 -219.907226562 389.928710938 -219.306640625 c 1
 378.677734375 -112.676757812 361.640625 13.5205078125 341.665039062 154.376953125 c 1
 307.1015625 145.67578125 280.787109375 129.11328125 262.715820312 104.686523438 c 0
 245.776367188 81.7861328125 237.306640625 54.46484375 237.306640625 22.7265625 c 0
 237.306640625 -20 245.825195312 -60.28515625 281.224609375 -86.1279296875 c 0
 284.54296875 -88.552734375 286.114257812 -91.240234375 286.114257812 -94.8427734375 c 0
 286.114257812 -100.83203125 282.435546875 -104.288085938 275.458007812 -104.08203125 c 0
 272.922851562 -104.006835938 270.354492188 -103.357421875 267.755859375 -101.90625 c 0xfa20
381.828125 162.208007812 m 1
 402.755859375 15.982421875 418.8046875 -112.666992188 429.625 -213.75 c 1
 522.75 -190 578.779296875 -105 578.779296875 -24.4970703125 c 0
 578.779296875 73.1669921875 505.94921875 162.649414062 395.380859375 162.649414062 c 0
 390.923828125 162.649414062 386.405273438 162.50390625 381.828125 162.208007812 c 1
392.475585938 -258.5546875 m 1
 380.8828125 -259.502929688 369.599609375 -259.962890625 358.6171875 -259.962890625 c 0
 208.341796875 -259.962890625 114.415039062 -210.029296875 54.453125 -108.546875 c 0
 17.958984375 -46.7783203125 -0.1513671875 15.380859375 -0.1513671875 89.794921875 c 0
 -0.1513671875 205.9453125 48.3203125 339.747070312 145.264648438 443.70703125 c 0
 197.291992188 499.500976562 241.489257812 541.482421875 275.25 582.5 c 1
 269.666015625 623.451171875 256.690429688 649.002929688 245.036132812 677.5 c 0
 233.212890625 706.4140625 196.5 801.25 196.5 860 c 0
 196.5 1005 244 1056.25 335.25 1150 c 1
 411.5 1048.75 472.75 996.25 472.75 821.25 c 0xf960
 472.75 663.75 417.75 543.75 334.625 460 c 1
 364.625 281.25 l 1
 382.48046875 285.928710938 399.354492188 288.016601562 418.87890625 288.016601562 c 0
 541.5 288.016601562 661.5 161.25 659.461914062 18.5380859375 c 0
 657.403320312 -125.6640625 556.030273438 -227.7578125 433.521484375 -253.396484375 c 1
 444.837890625 -366.026367188 452.296875 -436.251953125 452.296875 -506.641601562 c 0
 452.296875 -611.561523438 373.471679688 -690.372070312 269.708007812 -690.372070312 c 4
 221.732421875 -690.372070312 175.366210938 -673.337890625 140.612304688 -641.76953125 c 0
 103.208984375 -607.796875 84.126953125 -560.279296875 84.126953125 -505.419921875 c 0
 84.126953125 -438.341796875 134.217773438 -390.67578125 202.302734375 -390.67578125 c 0
 259.478515625 -390.67578125 306.803710938 -437.637695312 306.803710938 -494.799804688 c 0
 306.803710938 -550.338867188 256.291015625 -592.166015625 201.59765625 -592.166015625 c 0
 185.70703125 -592.166015625 150.681640625 -588.263671875 137.9140625 -576.927734375 c 1
 164.615234375 -621.875 216.302734375 -655.251953125 273.5859375 -655.251953125 c 0
 355.529296875 -655.251953125 410.578125 -579.887695312 410.578125 -495.919921875 c 0xf4a0
 410.578125 -436.334960938 402.884765625 -363.291015625 392.475585938 -258.5546875 c 1
308.375 622.5 m 1
 366.435546875 703.592773438 417.75 753.166015625 417.75 870.666015625 c 0
 417.75 931.25 394 990 366.5 1031.25 c 1
 264 927.5 267.75 816.25 267.75 791.25 c 0
 267.75 718.75 295.25 682.5 308.375 622.5 c 1
EndSplineSet
EndChar

StartChar: clefs.C_change
Encoding: 57627 57627 15
Width: 479
Flags: W
HStem: -377 30<263.848 354.815> -65 28<281.245 349.167> 36 27<281.783 348> 345 31<262.799 356.343>
VStem: 0 76<-372 372> 134 23<-372 -13 12 372> 196 113<-314.483 -237.564 236.564 313.483> 393 86<-296.911 -118.694 117.588 295.795>
LayerCount: 2
Fore
SplineSet
157 -372 m 1
 134 -372 l 1
 134 372 l 1
 157 372 l 1
 157 12 l 1
 199 47 227 93 240 150 c 1
 253 115 271 63 318 63 c 0
 338 63 355 78 370 108 c 0
 385 138 393 167 393 198 c 0
 393 244 386 280 373 306 c 0
 360 332 341.167 345 323 345 c 0
 298.979 345 278 340 262 329 c 1
 276 329 288 325 296 314 c 0
 304 303 309 290 309 274 c 0
 309 259 303 246 293 235 c 0
 283 224 271 218 255 218 c 0
 239 218 224 224 213 236 c 0
 202 248 196 262 196 278 c 0
 196 309 209 333 234 350 c 0
 259 367 289 376 323 376 c 0
 364 376 400 361 432 329 c 0
 464 297 479 254 479 201 c 0
 479 158 465 120 435 86 c 0
 405 52 373 36 340 36 c 0
 301 36 275 39 261 47 c 1
 251 26 242 11 223 -1 c 1
 242 -13 251 -28 261 -49 c 1
 275 -41 301 -37 340 -37 c 0
 373 -37 405 -53 435 -87 c 0
 465 -121 479 -160 479 -203 c 0
 479 -256 464 -298 432 -330 c 0
 400 -362 364 -377 323 -377 c 0
 289 -377 259 -369 234 -352 c 0
 209 -335 196 -310 196 -279 c 0
 196 -263 202 -249 213 -237 c 0
 224 -225 239 -219 255 -219 c 0
 271 -219 283 -225 293 -236 c 0
 303 -247 309 -260 309 -275 c 0
 309 -291 304 -304 296 -315 c 0
 288 -326 276 -331 262 -331 c 1
 278 -342 298.979 -347 323 -347 c 0
 342.167 -347 360 -333 373 -307 c 0
 386 -281 393 -245 393 -199 c 0
 393 -168 385 -139 370 -109 c 0
 355 -79 338 -65 318 -65 c 0
 271 -65 253 -116 240 -151 c 1
 227 -94 199 -48 157 -13 c 1
 157 -372 l 1
0 -372 m 25
 0 372 l 5
 76 372 l 1
 76 -372 l 1
 0 -372 l 25
EndSplineSet
Validated: 1
EndChar

StartChar: clefs.F_change
Encoding: 57628 57628 16
Width: 565
VWidth: 358
Flags: W
HStem: -119.326 79.2002<410.767 465.833> -57.2256 135<36.9582 134.236> 60.6738 79.2002<410.767 465.833> 177.912 25.2002<101.2 196.6>
VStem: 0 32.8496<50.5918 112.776> 261.9 99<-140.253 86.1167> 398.7 79.2002<-107.259 -52.1929 72.7409 127.807>
LayerCount: 2
Fore
SplineSet
398.700195312 -79.7255859375 m 0x9e
 398.703125 -68.92578125 402.603515625 -59.6259765625 410.400390625 -51.826171875 c 0
 418.201171875 -44.0224609375 427.500976562 -40.1220703125 438.299804688 -40.1259765625 c 0
 449.100585938 -40.1259765625 458.401367188 -44.025390625 466.200195312 -51.826171875 c 0
 474.005859375 -59.6259765625 477.905273438 -68.92578125 477.900390625 -79.7255859375 c 0
 477.900390625 -90.5263671875 474 -99.8271484375 466.200195312 -107.625976562 c 0
 458.399414062 -115.426757812 449.099609375 -119.326171875 438.299804688 -119.326171875 c 0
 427.5 -119.326171875 418.200195312 -115.426757812 410.400390625 -107.625976562 c 0
 402.599609375 -99.8251953125 398.700195312 -90.5263671875 398.700195312 -79.7255859375 c 0x9e
398.700195312 100.274414062 m 0
 398.703125 111.075195312 402.603515625 120.375 410.400390625 128.173828125 c 0
 418.201171875 135.975585938 427.500976562 139.875 438.299804688 139.874023438 c 0
 449.100585938 139.874023438 458.401367188 135.974609375 466.200195312 128.173828125 c 0
 474.005859375 120.374023438 477.905273438 111.07421875 477.900390625 100.274414062 c 0
 477.900390625 89.4736328125 474 80.1748046875 466.200195312 72.3740234375 c 0
 458.399414062 64.5732421875 449.099609375 60.673828125 438.299804688 60.673828125 c 0x3e
 427.5 60.67578125 418.200195312 64.576171875 410.400390625 72.3740234375 c 0
 402.599609375 80.177734375 398.700195312 89.4765625 398.700195312 100.274414062 c 0
32.849609375 50.591796875 m 1
 47.7001953125 76.6923828125 76.2001953125 77.779296875 93.599609375 77.7744140625 c 0
 126.12109375 77.7744140625 155.700195312 45.7021484375 155.700195312 12.9736328125 c 0
 155.700195312 -24.330078125 122.162109375 -57.2255859375 84.599609375 -57.2255859375 c 0x5e
 37.1005859375 -57.2255859375 0 -15.103515625 0 33.673828125 c 0
 0 81.673828125 12.150390625 118.875 40.0498046875 152.473632812 c 0
 67.9501953125 186.073242188 108.75 203.711914062 161.549804688 203.112304688 c 0
 223.94921875 202.51171875 273.899414062 182.473632812 308.700195312 138.07421875 c 0
 343.5 93.6728515625 360.900390625 39.07421875 360.900390625 -25.7255859375 c 0
 360.900390625 -71.92578125 351.900390625 -114.67578125 333.900390625 -153.975585938 c 0
 315.900390625 -193.276367188 290.25 -227.626953125 256.950195312 -257.026367188 c 0
 223.650390625 -286.426757812 188.549804688 -311.775390625 151.650390625 -333.076171875 c 0
 114.75 -354.375976562 72.900390625 -374.325195312 26.099609375 -392.92578125 c 0
 19.52734375 -395.5546875 13.9736328125 -394.9453125 9.439453125 -391.096679688 c 0
 4.904296875 -387.249023438 3.0927734375 -382.342773438 4.001953125 -376.377929688 c 0
 4.912109375 -370.412109375 8.677734375 -366.178710938 15.2998046875 -363.67578125 c 0
 98.5986328125 -332.200195312 150.59375 -287.783203125 198.450195312 -229.291992188 c 0
 230.849609375 -189.69140625 261.900390625 -93.552734375 261.900390625 -7.7255859375 c 0
 261.900390625 80.4462890625 230.849609375 177.912109375 156.599609375 177.912109375 c 0
 124.80078125 177.912109375 84.44921875 164.891601562 65.25 139.692382812 c 0
 46.05078125 114.4921875 32.849609375 77.591796875 32.849609375 50.591796875 c 1
EndSplineSet
EndChar

StartChar: clefs.G_change
Encoding: 57629 57629 17
Width: 473
VWidth: 719
Flags: W
HStem: -527.068 25.2871<143.846 238.095> -456.359 145.073<97.7564 194.54> -217.173 28.626<174.358 277.869 309.256 329.624> 87.1074 90.2646<272.036 354.357>
VStem: -2.98926 66.9453<-71.8461 87.8352> 57.6914 160.327<-434.232 -337.295> 135.758 32.2227<-64.4926 41.9229> 138.6 51.3008<493.239 642.2> 292.736 30.0371<-447.466 -217.951> 297.9 39.5996<507.729 679.526> 413.841 58.0918<-104.352 25.7932>
LayerCount: 2
Fore
SplineSet
189.904296875 -103.372070312 m 0xfa20
 173.517578125 -94.2392578125 160.573242188 -80.9150390625 151.073242188 -63.4013671875 c 0
 139.827148438 -42.666015625 135.7578125 -25.8203125 135.7578125 -2.15234375 c 0
 135.7578125 34.0908203125 143.647460938 66.3681640625 159.427734375 94.6826171875 c 0
 176.493164062 125.307617188 200.484375 147.736328125 231.399414062 161.970703125 c 1
 212.26953125 275.721679688 l 1
 155.09765625 212.396484375 107.190429688 139.5703125 78.0224609375 73.078125 c 0
 68.64453125 51.7001953125 63.9560546875 26.0732421875 63.9560546875 -3.8076171875 c 0
 63.9560546875 -115.5 133.200195312 -188.546875 258.909179688 -188.546875 c 0
 265.114257812 -188.546875 271.435546875 -188.333007812 277.869140625 -187.900390625 c 1
 269.767578125 -111.126953125 257.500976562 -20.265625 243.119140625 81.1513671875 c 1
 218.233398438 74.88671875 199.287109375 62.9619140625 186.275390625 45.3740234375 c 0
 174.079101562 28.8857421875 167.98046875 9.21484375 167.98046875 -13.63671875 c 0
 167.98046875 -44.400390625 174.114257812 -73.4052734375 199.6015625 -92.01171875 c 0
 201.991210938 -93.7578125 203.122070312 -95.693359375 203.122070312 -98.287109375 c 0
 203.122070312 -102.598632812 200.473632812 -105.087890625 195.450195312 -104.939453125 c 0
 193.624023438 -104.884765625 191.775390625 -104.416992188 189.904296875 -103.372070312 c 0xfa20
272.036132812 86.7900390625 m 1
 287.104492188 -18.4921875 298.659179688 -111.120117188 306.450195312 -183.900390625 c 1
 373.5 -166.799804688 413.840820312 -105.599609375 413.840820312 -47.6376953125 c 0
 413.840820312 22.6806640625 361.403320312 87.107421875 281.793945312 87.107421875 c 0
 278.584960938 87.107421875 275.33203125 87.0029296875 272.036132812 86.7900390625 c 1
279.702148438 -216.159179688 m 1
 271.35546875 -216.841796875 263.231445312 -217.172851562 255.32421875 -217.172851562 c 0
 147.125976562 -217.172851562 79.4990234375 -181.220703125 36.326171875 -108.153320312 c 0
 10.05078125 -63.6806640625 -2.9892578125 -18.92578125 -2.9892578125 34.65234375 c 0
 -2.9892578125 118.280273438 31.91015625 214.618164062 101.7109375 289.46875 c 0
 139.169921875 329.640625 170.9921875 359.8671875 195.299804688 389.400390625 c 1
 191.279296875 418.884765625 181.9375 437.282226562 173.545898438 457.799804688 c 0
 165.033203125 478.618164062 138.599609375 546.900390625 138.599609375 589.200195312 c 0
 138.599609375 693.599609375 172.799804688 730.5 238.5 798 c 1
 293.400390625 725.099609375 337.5 687.299804688 337.5 561.299804688 c 0xf960
 337.5 447.900390625 297.900390625 361.5 238.049804688 301.200195312 c 1
 259.650390625 172.5 l 1
 272.505859375 175.869140625 284.655273438 177.372070312 298.712890625 177.372070312 c 0
 387 177.372070312 473.400390625 86.099609375 471.932617188 -16.65234375 c 0
 470.450195312 -120.478515625 397.461914062 -193.985351562 309.255859375 -212.4453125 c 1
 317.403320312 -293.5390625 322.7734375 -344.1015625 322.7734375 -394.782226562 c 0
 322.7734375 -470.32421875 266.01953125 -527.068359375 191.309570312 -527.068359375 c 0
 156.767578125 -527.068359375 123.383789062 -514.803710938 98.361328125 -492.07421875 c 0
 71.4306640625 -467.61328125 57.69140625 -433.401367188 57.69140625 -393.90234375 c 0
 57.69140625 -345.606445312 93.7568359375 -311.286132812 142.778320312 -311.286132812 c 0
 183.944335938 -311.286132812 218.018554688 -345.099609375 218.018554688 -386.255859375 c 0
 218.018554688 -426.244140625 181.649414062 -456.359375 142.270507812 -456.359375 c 0
 130.829101562 -456.359375 105.610351562 -453.549804688 96.41796875 -445.387695312 c 1
 115.642578125 -477.75 152.858398438 -501.78125 194.1015625 -501.78125 c 0
 253.1015625 -501.78125 292.736328125 -447.51953125 292.736328125 -387.0625 c 0xf4a0
 292.736328125 -344.161132812 287.197265625 -291.569335938 279.702148438 -216.159179688 c 1
219.150390625 418.200195312 m 1
 260.953125 476.586914062 297.900390625 512.279296875 297.900390625 596.879882812 c 0
 297.900390625 640.5 280.799804688 682.799804688 261 712.5 c 1
 187.200195312 637.799804688 189.900390625 557.700195312 189.900390625 539.700195312 c 0
 189.900390625 487.5 209.700195312 461.400390625 219.150390625 418.200195312 c 1
EndSplineSet
EndChar

StartChar: accidentals.M1
Encoding: 57642 57642 18
Width: 232
Flags: W
HStem: 126 31<69.2365 152.779>
VStem: 0 99<-15.0307 118.866> 182 51<113 470.868> 190 30<-143 100.01 111 162>
LayerCount: 2
Fore
SplineSet
190 77 m 17xd0
 180 94 172 106 163 114 c 0
 154 122 144 126 132 126 c 0
 120 126 111 119 106 105 c 0
 101 91 99 78 99 62 c 0
 99 -8.54044542123 153.22404934 -112.264038127 193 -143 c 5
 190 77 l 17xd0
220 -181 m 18
 220 -188 217 -190 211 -190 c 2
 201 -190 l 2
 198 -190 194 -188 186 -180 c 0
 145.310365985 -139.310365985 90.2472317711 -97.8645531559 51 -54 c 0
 25.604922467 -25.6172662867 0 10.0910457269 0 55 c 0
 0 108.612552979 42.473074981 157 96 157 c 0
 115 157 131 154 144 147 c 0
 157 140 171 128 188 111 c 1
 182 456 l 2
 182 466 190 471 207 471 c 0
 224 471 233 466 233 456 c 2xe0
 220 -181 l 18
EndSplineSet
Validated: 1
EndChar

StartChar: accidentals.mirroredflat
Encoding: 57643 57643 19
Width: 232
Flags: W
HStem: 126 31<83 152.779>
VStem: 0 99<-14.7998 119.352> 182 51<113 470.868> 190 30<-143 100.01 111 162>
LayerCount: 2
Fore
SplineSet
190 77 m 17xd0
 180 94 172 106 163 114 c 0
 154 122 144 126 132 126 c 0
 120 126 111 119 106 105 c 0
 101 91 99 78 99 62 c 0
 99 -8.54044542123 153.22404934 -112.264038127 193 -143 c 5
 190 77 l 17xd0
220 -181 m 18
 220 -188 217 -190 211 -190 c 2
 201 -190 l 2
 198 -190 194 -188 186 -180 c 0
 145.310365985 -139.310365985 90.2472317711 -97.8645531559 51 -54 c 0
 25.604922467 -25.6172662867 0 10.0910457269 0 55 c 0
 0 108.612552979 42.473074981 157 96 157 c 0
 115 157 131 154 144 147 c 0
 157 140 171 128 188 111 c 1
 182 456 l 2
 182 466 190 471 207 471 c 0
 224 471 233 466 233 456 c 2xe0
 220 -181 l 18
EndSplineSet
Validated: 1
EndChar

StartChar: accidentals.mirroredflat.backslash
Encoding: 57644 57644 20
Width: 372
Flags: W
HStem: 126 31<69.2365 152.779>
VStem: 0 99<-15.2728 118.866> 188 41<119 269 321 433.5> 193 27<-143 93.4373 111 169>
LayerCount: 2
Fore
SplineSet
190 77 m 1xd0
 180 94 172 106 163 114 c 0
 154 122 144 126 132 126 c 0
 120 126 111 119 106 105 c 0
 101 91 99 78 99 62 c 0
 99 28 108 -11 129 -54 c 0
 150 -97 171 -126 193 -143 c 1
 190 77 l 1xd0
53 349 m 0
 56 358 66 362 75 359 c 2
 185 321 l 1
 184 366 183 411 182 456 c 0
 182 466 190 471 207 471 c 0
 224 471 233 466 233 456 c 0
 232 406 230 356 229 306 c 1
 362 259 l 2
 371 256 376 245 373 236 c 0
 370 227 360 223 351 226 c 2
 229 269 l 1xe0
 220 -181 l 2xd0
 220 -188 217 -190 211 -190 c 2
 201 -190 l 2
 198 -190 194 -188 186 -180 c 0
 145.310365985 -139.310365985 90.2472317711 -97.8645531559 51 -54 c 4
 25.604922467 -25.6172662867 0 10.0910457269 0 55 c 0
 0 108.612552979 42.473074981 157 96 157 c 0
 115 157 131 154 144 147 c 0
 157 140 171 128 188 111 c 1xe0
 185 284 l 1
 63 326 l 2
 54 329 50 340 53 349 c 0
EndSplineSet
Validated: 513
EndChar

StartChar: accidentals.M2
Encoding: 57645 57645 21
Width: 182
Flags: W
HStem: 123.125 30.625<79.1426 159.693>
VStem: 4.375 45.625<161.072 459.985> 16.875 24.375<-146.562 93.927 106.251 171.65> 131.25 96.25<-15.3673 116.145>
LayerCount: 2
Fore
SplineSet
16.875 -176.25 m 2xb0
 4.375 445 l 2
 4.375 455 10.833984375 460 27.5 460 c 0
 44.166015625 460 50.24609375 454.99609375 50 445 c 2xd0
 41.6484375 106.250976562 l 1
 58.314453125 122.91796875 75 137.083984375 87.5 143.75 c 0
 100 150.416015625 115.416015625 153.75 133.75 153.75 c 0
 185.63671875 153.75 227.5 105.8671875 227.5 53.75 c 0
 227.5 9.1005859375 202.983398438 -24.4677734375 177.5 -52.5 c 0
 138.568359375 -95.326171875 86.978515625 -137.5 46.25 -175 c 0
 38.447265625 -182.18359375 33.75 -186.25 31.25 -186.25 c 2
 25.625 -186.25 l 2
 19.791015625 -186.25 16.875 -182.916015625 16.875 -176.25 c 2xb0
41.25 75.625 m 1xb0
 38.4375 -146.5625 l 1
 74.6875 -112.1875 131.25 -6.330078125 131.25 60.625 c 0
 131.25 86.2548828125 123.263671875 123.125 98.75 123.125 c 0
 87.1689453125 123.125 77.1669921875 119.275390625 68.7412109375 111.576171875 c 0
 60.3173828125 103.876953125 51.15234375 91.8935546875 41.25 75.625 c 1xb0
EndSplineSet
Validated: 1
EndChar

StartChar: accidentals.flat
Encoding: 57646 57646 22
Width: 182
Flags: W
HStem: 123.125 30.625<79.1426 159.693>
VStem: 4.375 45.625<161.072 459.985> 16.875 24.375<-146.562 93.927 106.251 171.65> 131.25 96.25<-15.3673 116.145>
LayerCount: 2
Fore
SplineSet
16.875 -176.25 m 2xb0
 4.375 445 l 2
 4.375 455 10.833984375 460 27.5 460 c 0
 44.166015625 460 50.24609375 454.99609375 50 445 c 2xd0
 41.6484375 106.250976562 l 1
 58.314453125 122.91796875 75 137.083984375 87.5 143.75 c 0
 100 150.416015625 115.416015625 153.75 133.75 153.75 c 0
 185.63671875 153.75 227.5 105.8671875 227.5 53.75 c 0
 227.5 9.1005859375 202.983398438 -24.4677734375 177.5 -52.5 c 0
 138.568359375 -95.326171875 86.978515625 -137.5 46.25 -175 c 0
 38.447265625 -182.18359375 33.75 -186.25 31.25 -186.25 c 2
 25.625 -186.25 l 2
 19.791015625 -186.25 16.875 -182.916015625 16.875 -176.25 c 2xb0
41.25 75.625 m 1xb0
 38.4375 -146.5625 l 1
 74.6875 -112.1875 131.25 -6.330078125 131.25 60.625 c 0
 131.25 86.2548828125 123.263671875 123.125 98.75 123.125 c 0
 87.1689453125 123.125 77.1669921875 119.275390625 68.7412109375 111.576171875 c 0
 60.3173828125 103.876953125 51.15234375 91.8935546875 41.25 75.625 c 1xb0
EndSplineSet
Validated: 1
EndChar

StartChar: accidentals.flat.arrowup
Encoding: 57647 57647 23
Width: 181
Flags: W
HStem: 126 31<53.2206 136.757>
VStem: -26 49<111 435> -15 31<-143 100.568 111 211> 107 99<-13.9183 118.538>
LayerCount: 2
Fore
SplineSet
16 77 m 1xb0
 13 -143 l 1
 52.0072548356 -112.858030354 107 -6.67966638457 107 62 c 0
 107 89.335072348 100.065405307 126 74 126 c 0
 62 126 52 122 43 114 c 0
 34 106 26 94 16 77 c 1xb0
23 436 m 1xd0
 18 111 l 1
 35 128 49 140 62 147 c 0
 75 154 91 157 110 157 c 0
 163.51473689 157 206 108.618348098 206 55 c 4
 206 9.34921588585 179.661395849 -25.319616404 154 -54 c 0
 114.839745859 -97.7673428631 61.655152977 -139.344847023 21 -180 c 0
 13 -188 8 -190 5 -190 c 2
 -5 -190 l 2
 -11 -190 -15 -188 -15 -181 c 2xb0
 -26 435 l 1
 -38 430 -52 422 -70 411 c 0
 -73 409 -76 409 -79 409 c 0
 -88 409 -95 415 -95 425 c 0
 -95 431 -92 434 -90 438 c 0
 -58 489 -34 550 -18 618 c 0
 -15 633 -13 636 -6 639 c 0
 -4 640 -2 640 0 640 c 0
 4 640 9 638 12 635 c 0
 15 632 16 631 18 622 c 0
 32 558 59 489 91 438 c 0
 93 434 96 430 96 425 c 0
 96 415 89 409 80 409 c 0
 77 409 73 409 70 411 c 0
 52 422 37 430 23 436 c 1xd0
EndSplineSet
Validated: 1
EndChar

StartChar: accidentals.flat.arrowdown
Encoding: 57648 57648 24
Width: 181
Flags: W
HStem: 126 31<53.2206 136.757>
VStem: -27 51<111 470.868> -12.6684 23.8275<-259.624 -178.094 -143 88.142> 107 99<-13.6307 118.538>
LayerCount: 2
Fore
SplineSet
107 62 m 4x90
 107 89.335072348 100.065405307 126 74 126 c 0
 62 126 52 122 43 114 c 0
 34 106 26 94 16 77 c 1
 13 -143 l 1
 57.2405750086 -107.607539993 107 -7.94947236714 107 62 c 4x90
-12.6684 -259.624 m 1xb0
 -27 456 l 2
 -27 466 -18 471 -1 471 c 0
 16 471 24 466 24 456 c 2xd0
 18 111 l 1
 35 128 49 140 62 147 c 0
 75 154 91 157 110 157 c 0
 163.51473689 157 206 108.618348098 206 55 c 0
 206 9.34921588585 179.661395849 -25.319616404 154 -54 c 0
 114.839745859 -97.7673428631 61.655152977 -139.344847023 21 -180 c 0
 18 -183 15 -185 12 -187 c 1
 12 -213.908 11.4413 -232.995 11.1591 -259.711 c 1
 27.4967 -256.052 44.7759 -245.019 70 -232 c 0
 73 -230 77 -230 80 -230 c 0
 89 -230 96 -236 96 -246 c 0
 96 -251 93 -255 91 -259 c 0
 59 -310 32 -379 18 -443 c 0
 16 -452 15 -453 12 -456 c 0
 9 -459 4 -461 0 -461 c 0
 -2 -461 -4 -461 -6 -460 c 0
 -13 -457 -15 -454 -18 -439 c 0
 -34 -371 -58 -310 -90 -259 c 0
 -92 -255 -95 -252 -95 -246 c 0
 -95 -236 -88 -230 -79 -230 c 0
 -76 -230 -73 -230 -70 -232 c 0
 -41.446 -246.277 -27.9907 -256.15 -12.6684 -259.624 c 1xb0
EndSplineSet
Validated: 1
EndChar

StartChar: accidentals.flat.arrowboth
Encoding: 57649 57649 25
Width: 181
Flags: W
HStem: 126 31<53.2206 136.757>
VStem: -26 49<111 435> -13 24<-260 -188.215> 107 99<-13.6307 118.538>
LayerCount: 2
Fore
SplineSet
107 62 m 4x90
 107 89.335072348 100.065405307 126 74 126 c 0
 62 126 52 122 43 114 c 0
 34 106 26 94 16 77 c 1
 13 -143 l 1
 57.2405750086 -107.607539993 107 -7.94947236714 107 62 c 4x90
23 436 m 1xd0
 18 111 l 1
 35 128 49 140 62 147 c 0
 75 154 91 157 110 157 c 0
 163.51473689 157 206 108.618348098 206 55 c 0
 206 9.34921588585 179.661395849 -25.319616404 154 -54 c 0
 114.839745859 -97.7673428631 61.655152977 -139.344847023 21 -180 c 4
 18 -183 15 -185 12 -187 c 1
 12 -213 11 -234 11 -260 c 1
 28 -256 45 -245 70 -232 c 0
 73 -230 77 -230 80 -230 c 0
 89 -230 96 -236 96 -246 c 0
 96 -251 93 -255 91 -259 c 0
 59 -310 32 -379 18 -443 c 0
 16 -452 15 -453 12 -456 c 0
 9 -459 4 -461 0 -461 c 0
 -2 -461 -4 -461 -6 -460 c 0
 -13 -457 -15 -454 -18 -439 c 0
 -34 -371 -58 -310 -90 -259 c 0
 -92 -255 -95 -252 -95 -246 c 0
 -95 -236 -88 -230 -79 -230 c 0
 -76 -230 -73 -230 -70 -232 c 0
 -41 -246 -29 -257 -13 -260 c 1xb0
 -26 435 l 1
 -38 430 -52 422 -70 411 c 0
 -73 409 -76 409 -79 409 c 0
 -88 409 -95 415 -95 425 c 0
 -95 431 -92 434 -90 438 c 0
 -58 489 -34 550 -18 618 c 0
 -15 633 -13 636 -6 639 c 0
 -4 640 -2 640 0 640 c 0
 4 640 9 638 12 635 c 0
 15 632 16 631 18 622 c 0
 32 558 59 489 91 438 c 0
 93 434 96 430 96 425 c 0
 96 415 89 409 80 409 c 0
 77 409 73 409 70 411 c 0
 52 422 37 430 23 436 c 1xd0
EndSplineSet
Validated: 1
EndChar

StartChar: accidentals.flat.slash
Encoding: 57650 57650 26
Width: 372
Flags: W
HStem: 126 31<-151.877 -69.2426>
VStem: -229 41<118.667 268> -220 27<-143 94.6927 111 168.444> -99 99<-15.1079 118.875>
LayerCount: 2
Fore
SplineSet
-191 77 m 1xb0
 -193 -143 l 1
 -153.056424485 -112.134509829 -99 -9.1281524268 -99 62 c 4
 -99 78 -102 92 -107 106 c 0
 -112 120 -121 126 -132 126 c 0
 -144 126 -154 122 -163 114 c 0
 -172 106 -181 94 -191 77 c 1xb0
-53 349 m 0
 -50 340 -55 330 -64 327 c 2
 -185 284 l 1
 -188 111 l 1xd0
 -171 128 -156 140 -143 147 c 0
 -130 154 -115 157 -96 157 c 0
 -42.4852631099 157 0 108.938364533 0 55 c 0
 0 9.80305570192 -25.2648041673 -25.2371340693 -51 -54 c 0
 -90.1236862591 -97.7264728779 -145.09031514 -138.09031514 -186 -179 c 4
 -194 -187 -198 -191 -201 -191 c 2
 -211 -191 l 2
 -217 -191 -220 -187 -220 -180 c 2xb0
 -229 268 l 1xd0
 -351 226 l 2
 -360 223 -370 227 -373 236 c 0
 -376 245 -371 256 -362 259 c 2
 -230 305 l 1
 -231 355 -232 406 -233 456 c 0
 -233 466 -224 471 -207 471 c 0
 -190 471 -182 466 -182 456 c 0
 -183 411 -183 366 -184 321 c 1
 -75 360 l 2
 -66 363 -56 358 -53 349 c 0
EndSplineSet
Validated: 1
EndChar

StartChar: accidentals.flat.slashslash
Encoding: 57651 57651 27
Width: 232
Flags: W
HStem: 126 31<-151.877 -69.2426>
VStem: -229 41<84.6667 109.515 111 217 271 328> -220 27<-143 94.6927 111 128.778> -99 99<-15.1079 118.915>
LayerCount: 2
Fore
SplineSet
-191 77 m 1xb0
 -193 -143 l 1
 -153.056424485 -112.134509829 -99 -9.1281524268 -99 62 c 0
 -99 88.3235633526 -106.938483348 126 -132 126 c 4
 -144 126 -154 122 -163 114 c 0
 -172 106 -181 94 -191 77 c 1xb0
-366 295 m 0
 -369 304 -365 314 -356 317 c 2
 -231 365 l 1
 -232 395 -232 426 -233 456 c 0
 -233 466 -224 471 -207 471 c 0
 -190 471 -182 466 -182 456 c 0
 -182 432 -184 408 -184 384 c 1
 -64 429 l 2
 -55 432 -45 428 -42 419 c 0
 -39 410 -43 399 -52 396 c 2
 -184 346 l 1
 -186 271 l 1
 -150 285 -111 298 -64 316 c 0
 -55 319 -45 315 -42 306 c 0
 -39 297 -43 286 -52 283 c 0
 -104 263 -146 248 -186 232 c 1
 -187 192 -187 151 -188 111 c 1xd0
 -171 128 -156 140 -143 147 c 0
 -130 154 -115 157 -96 157 c 0
 -42.4852631099 157 0 108.938364533 0 55 c 0
 0 9.80305570192 -25.2648041673 -25.2371340693 -51 -54 c 0
 -90.1236862591 -97.7264728779 -145.09031514 -138.09031514 -186 -179 c 0
 -194 -187 -198 -191 -201 -191 c 2
 -211 -191 l 2
 -217 -191 -220 -187 -220 -180 c 2xb0
 -229 217 l 1
 -264 203 -300 190 -344 173 c 0
 -353 170 -363 174 -366 183 c 0
 -369 192 -365 202 -356 205 c 0
 -307 224 -267 239 -229 254 c 1xd0
 -230 328 l 1
 -344 284 l 2
 -353 281 -363 286 -366 295 c 0
EndSplineSet
Validated: 1
EndChar

StartChar: accidentals.M3
Encoding: 57652 57652 28
Width: 508
Flags: W
HStem: 126 31<69.2365 151.877 271.123 353.757>
VStem: 0 99<-15.1043 118.874> 188 47<111 470.98> 193 37<-143 101.119> 324 99<-15.1079 118.875>
LayerCount: 2
Fore
SplineSet
212 471 m 0xe8
 231 471 241 468 241 456 c 2
 235 111 l 1
 252 128 267 140 280 147 c 0
 293 154 308 157 327 157 c 0
 380.51473689 157 423 108.938364533 423 55 c 4
 423 9.80305570192 397.735195833 -25.2371340693 372 -54 c 0
 332.876313741 -97.7264728779 277.90968486 -138.09031514 237 -179 c 0
 229 -187 225 -191 222 -191 c 2
 212 -191 l 1
 211 -191 l 1
 201 -191 l 2
 198 -191 194 -187 186 -179 c 0
 145.369660491 -138.369660491 89.8926614132 -97.4682686383 51 -54 c 0
 25.20030713 -25.1650491453 0 9.70880040126 0 55 c 0
 0 108.93134989 42.473074981 157 96 157 c 0
 115 157 130 154 143 147 c 0
 156 140 171 128 188 111 c 1
 182 456 l 2
 182 468 193 471 212 471 c 0xe8
232 77 m 1
 230 -143 l 1xd8
 269.943575515 -112.134509829 324 -9.1281524268 324 62 c 0
 324 78 321 92 316 106 c 0
 311 120 302 126 291 126 c 0
 279 126 269 122 260 114 c 0
 251 106 242 94 232 77 c 1
191 77 m 1
 181 94 172 106 163 114 c 0
 154 122 144 126 132 126 c 0
 121 126 112 120 107 106 c 0
 102 92 99 78 99 62 c 0
 99 -9.1075077866 153.088035406 -112.15893645 193 -143 c 1
 191 77 l 1
EndSplineSet
Validated: 1
EndChar

StartChar: accidentals.mirroredflat.flat
Encoding: 57653 57653 29
Width: 508
Flags: W
HStem: 126 31<83 151.877 271.123 340>
VStem: 0 99<-13.7428 119.61> 188 47<111 470.98> 193 37<-143 101.119> 324 99<-13.7428 119.61>
LayerCount: 2
Fore
SplineSet
212 471 m 0xe8
 231 471 241 468 241 456 c 2
 235 111 l 1
 252 128 267 140 280 147 c 0
 293 154 308 157 327 157 c 0
 380.51473689 157 423 108.938364533 423 55 c 4
 423 9.80305570192 397.735195833 -25.2371340693 372 -54 c 0
 332.876313741 -97.7264728779 277.90968486 -138.09031514 237 -179 c 0
 229 -187 225 -191 222 -191 c 2
 212 -191 l 1
 211 -191 l 1
 201 -191 l 2
 198 -191 194 -187 186 -179 c 0
 145.369660491 -138.369660491 89.8926614132 -97.4682686383 51 -54 c 0
 25.20030713 -25.1650491453 0 9.70880040126 0 55 c 0
 0 108.93134989 42.473074981 157 96 157 c 0
 115 157 130 154 143 147 c 0
 156 140 171 128 188 111 c 1
 182 456 l 2
 182 468 193 471 212 471 c 0xe8
232 77 m 1
 230 -143 l 1xd8
 269.943575515 -112.134509829 324 -9.1281524268 324 62 c 0
 324 78 321 92 316 106 c 0
 311 120 302 126 291 126 c 0
 279 126 269 122 260 114 c 0
 251 106 242 94 232 77 c 1
191 77 m 1
 181 94 172 106 163 114 c 0
 154 122 144 126 132 126 c 0
 121 126 112 120 107 106 c 0
 102 92 99 78 99 62 c 0
 99 -9.1075077866 153.088035406 -112.15893645 193 -143 c 1
 191 77 l 1
EndSplineSet
Validated: 1
EndChar

StartChar: accidentals.M4
Encoding: 57654 57654 30
Width: 332
Flags: W
HStem: 248.125 30.625<78.9419 146.666>
LayerCount: 2
Fore
SplineSet
16.875 -176.25 m 2
 4.375 445 l 2
 4.375 455 10.833984375 460 27.5 460 c 0
 44.166015625 460 50.24609375 454.99609375 50 445 c 2
 41.6484375 106.250976562 l 1
 58.314453125 122.91796875 75 137.083984375 87.5 143.75 c 0
 100 150.416015625 115.416015625 153.75 133.75 153.75 c 0
 158.80078125 153.75 181.515625 142.588867188 198.309570312 125.178710938 c 1
 191.875 445 l 2
 191.875 455 198.333984375 460 215 460 c 0
 231.666015625 460 237.74609375 454.99609375 237.5 445 c 2
 229.1484375 106.250976562 l 1
 245.814453125 122.91796875 262.5 137.083984375 275 143.75 c 0
 287.5 150.416015625 302.916015625 153.75 321.25 153.75 c 0
 368.412109375 153.75 415 105.8671875 415 53.75 c 0
 415 9.1005859375 390.483398438 -24.4677734375 365 -52.5 c 0
 326.068359375 -95.326171875 274.478515625 -137.5 233.75 -175 c 0
 225.947265625 -182.18359375 221.25 -186.25 218.75 -186.25 c 2
 213.125 -186.25 l 2
 207.291015625 -186.25 204.375 -182.916015625 204.375 -176.25 c 2
 201.293945312 -23.1337890625 l 1
 194.008789062 -33.638671875 185.805664062 -43.36328125 177.5 -52.5 c 0
 138.568359375 -95.326171875 86.978515625 -137.5 46.25 -175 c 0
 38.447265625 -182.18359375 33.75 -186.25 31.25 -186.25 c 2
 25.625 -186.25 l 2
 19.791015625 -186.25 16.875 -182.916015625 16.875 -176.25 c 2
41.25 75.625 m 1
 38.4375 -146.5625 l 1
 74.6875 -112.1875 131.25 -6.330078125 131.25 60.625 c 0
 131.25 86.2548828125 123.263671875 123.125 98.75 123.125 c 0
 87.1689453125 123.125 77.1669921875 119.275390625 68.7412109375 111.576171875 c 0
 60.3173828125 103.876953125 51.15234375 91.8935546875 41.25 75.625 c 1
228.75 75.625 m 1
 225.9375 -146.5625 l 1
 262.1875 -112.1875 318.75 -6.330078125 318.75 60.625 c 0
 318.75 86.2548828125 310.763671875 123.125 286.25 123.125 c 0
 274.668945312 123.125 264.666992188 119.275390625 256.241210938 111.576171875 c 0
 247.817382812 103.876953125 238.65234375 91.8935546875 228.75 75.625 c 1
EndSplineSet
Validated: 1
EndChar

StartChar: accidentals.flatflat
Encoding: 57655 57655 31
Width: 332
Flags: W
HStem: 248.125 30.625<78.9419 146.666>
LayerCount: 2
Fore
SplineSet
16.875 -176.25 m 2
 4.375 445 l 2
 4.375 455 10.833984375 460 27.5 460 c 0
 44.166015625 460 50.24609375 454.99609375 50 445 c 2
 41.6484375 106.250976562 l 1
 58.314453125 122.91796875 75 137.083984375 87.5 143.75 c 0
 100 150.416015625 115.416015625 153.75 133.75 153.75 c 0
 158.80078125 153.75 181.515625 142.588867188 198.309570312 125.178710938 c 1
 191.875 445 l 2
 191.875 455 198.333984375 460 215 460 c 0
 231.666015625 460 237.74609375 454.99609375 237.5 445 c 2
 229.1484375 106.250976562 l 1
 245.814453125 122.91796875 262.5 137.083984375 275 143.75 c 0
 287.5 150.416015625 302.916015625 153.75 321.25 153.75 c 0
 368.412109375 153.75 415 105.8671875 415 53.75 c 0
 415 9.1005859375 390.483398438 -24.4677734375 365 -52.5 c 0
 326.068359375 -95.326171875 274.478515625 -137.5 233.75 -175 c 0
 225.947265625 -182.18359375 221.25 -186.25 218.75 -186.25 c 2
 213.125 -186.25 l 2
 207.291015625 -186.25 204.375 -182.916015625 204.375 -176.25 c 2
 201.293945312 -23.1337890625 l 1
 194.008789062 -33.638671875 185.805664062 -43.36328125 177.5 -52.5 c 0
 138.568359375 -95.326171875 86.978515625 -137.5 46.25 -175 c 0
 38.447265625 -182.18359375 33.75 -186.25 31.25 -186.25 c 2
 25.625 -186.25 l 2
 19.791015625 -186.25 16.875 -182.916015625 16.875 -176.25 c 2
41.25 75.625 m 1
 38.4375 -146.5625 l 1
 74.6875 -112.1875 131.25 -6.330078125 131.25 60.625 c 0
 131.25 86.2548828125 123.263671875 123.125 98.75 123.125 c 0
 87.1689453125 123.125 77.1669921875 119.275390625 68.7412109375 111.576171875 c 0
 60.3173828125 103.876953125 51.15234375 91.8935546875 41.25 75.625 c 1
228.75 75.625 m 1
 225.9375 -146.5625 l 1
 262.1875 -112.1875 318.75 -6.330078125 318.75 60.625 c 0
 318.75 86.2548828125 310.763671875 123.125 286.25 123.125 c 0
 274.668945312 123.125 264.666992188 119.275390625 256.241210938 111.576171875 c 0
 247.817382812 103.876953125 238.65234375 91.8935546875 228.75 75.625 c 1
EndSplineSet
Validated: 1
EndChar

StartChar: accidentals.flatflat.slash
Encoding: 57656 57656 32
Width: 399
Flags: HMW
LayerCount: 2
Fore
SplineSet
207 -137 m 1
 246.652163877 -106.35969155 301 -2.00005936002 301 68 c 0
 301 83 299 97 293 111 c 0
 287 125 279 132 268 132 c 0
 248 132 229 115 209 83 c 1
 207 -137 l 1
18 67 m 1
 16 -154 l 1
 55.2946203899 -123.635975153 111 -18.0593731028 111 51 c 4
 111 66 108 81 102 95 c 0
 96 109 88 115 77 115 c 0
 57 115 38 99 18 67 c 1
-188 174 m 0
 -191 183 -187 193 -178 196 c 2
 -20 252 l 1
 -24 456 l 2
 -24 466 -15 471 2 471 c 0
 19 471 27 466 27 456 c 2
 23 267 l 1
 170 318 l 1
 169 364 168 410 167 456 c 0
 167 466 176 471 193 471 c 0
 210 471 218 466 218 456 c 0
 217 415 217 375 216 334 c 1
 361 386 l 2
 370 389 381 384 384 375 c 0
 387 366 382 356 373 353 c 2
 215 297 l 1
 214 235 213 173 212 111 c 1
 229 128 244 140 257 147 c 0
 270 154 285 157 304 157 c 0
 357.51473689 157 400 108.938364533 400 55 c 0
 400 9.80305570192 374.735195833 -25.2371340693 349 -54 c 0
 309.876313741 -97.7264728779 254.90968486 -138.09031514 214 -179 c 0
 206 -187 202 -191 199 -191 c 2
 189 -191 l 2
 183 -191 180 -187 180 -180 c 2
 177 -29 l 1
 140.598867045 -79.4015687074 67.9512558495 -135.04874415 24 -179 c 4
 16 -187 11 -191 8 -191 c 2
 -2 -191 l 2
 -8 -191 -11 -187 -11 -180 c 2
 -20 215 l 1
 -166 163 l 2
 -175 160 -185 165 -188 174 c 0
23 229 m 1
 21 111 l 1
 38 128 53 140 66 147 c 0
 79 154 94 157 113 157 c 0
 136 157 155 149 173 134 c 1
 172 183 171 232 170 281 c 1
 23 229 l 1
EndSplineSet
Validated: 1
EndChar

StartChar: noteheads.s2
Encoding: 57662 57662 33
Width: 309
VWidth: 1250
Flags: W
HStem: -141.25 282.5<114.198 195.335>
VStem: 0 308.75<-31.0654 33.6673>
LayerCount: 2
Fore
SplineSet
308.75 51.25 m 0
 308.749023438 31.25 306.666015625 15 302.5 2.5 c 0
 293.333984375 -28.333984375 271.041015625 -60 235.625 -92.5 c 0
 200.208984375 -125 154.166015625 -141.25 97.5 -141.25 c 0
 37.125 -141.25 0 -108.767578125 0 -51.25 c 0
 0 15.4580078125 28.099609375 47.7880859375 63.75 84.375 c 0
 94.5078125 115.94140625 149.151367188 141.25 211.25 141.25 c 0
 271.625 141.25 308.75 108.766601562 308.75 51.25 c 0
EndSplineSet
Validated: 1
EndChar

StartChar: noteheads.s1
Encoding: 57663 57663 34
Width: 313
VWidth: 1125
Flags: W
HStem: -142.5 22.5<46.97 106.393> 119.375 23.125<207.174 268.898>
VStem: 0 26.5625<-101.235 -40.676> 290.312 23.4375<44.3223 97.9587>
LayerCount: 2
Fore
SplineSet
77.8125 -120 m 0
 99.478515625 -120 143.958984375 -88.333984375 199.375 -40 c 0
 254.791015625 8.333984375 290.3125 49.375 290.3125 69.375 c 0
 290.311523438 81.041015625 285.103515625 92.291015625 274.6875 103.125 c 0
 264.271484375 113.958984375 252.396484375 119.375 239.0625 119.375 c 0
 217.396484375 119.375 171.041015625 88.333984375 115.625 40 c 0
 60.208984375 -8.333984375 26.5625 -50 26.5625 -70 c 0
 26.5625 -81.666015625 31.5625 -92.916015625 41.5625 -103.75 c 0
 51.5625 -114.583984375 63.646484375 -120 77.8125 -120 c 0
98.75 -142.5 m 0
 38.451171875 -142.5 0 -109.98828125 0 -52.5 c 0
 0 76.25 79.2470703125 142.5 213.75 142.5 c 0
 280.416015625 142.5 313.75 112.083984375 313.75 51.25 c 0
 313.75 -77.365234375 233.487304688 -142.5 98.75 -142.5 c 0
EndSplineSet
Validated: 1
EndChar

StartChar: accidentals.0
Encoding: 57678 57678 35
Width: 154
VWidth: 900
Flags: W
VStem: 8.65234 28.8477<-90.7764 51.7236 159.224 394.037> 136.25 31.5625<-377.494 -159.224 -51.7236 90.7764>
LayerCount: 2
Fore
SplineSet
37.5 -90.7763671875 m 1
 136.25 -51.7236328125 l 1
 136.25 90.7763671875 l 1
 37.5 51.7236328125 l 1
 37.5 -90.7763671875 l 1
29.90625 -201.05078125 m 2
 23.5400390625 -203.515625 18.361328125 -203.560546875 14.478515625 -201.45703125 c 0
 10.595703125 -199.353515625 8.65234375 -195.46484375 8.65234375 -189.793945312 c 2
 8.65234375 377.697265625 l 2
 8.65234375 390.197265625 11.771484375 394.0625 24.271484375 394.0625 c 0
 36.771484375 394.0625 37.5 387.5 37.5 375 c 2
 37.5 159.223632812 l 1
 150.103515625 201.875 l 2
 164.271484375 206.37890625 167.599609375 201.376953125 167.60546875 189.3671875 c 2
 167.8125 -357.5 l 2
 167.8125 -370 164.89453125 -377.5 152.39453125 -377.5 c 0
 139.89453125 -377.5 136.25 -368.75 136.25 -356.25 c 2
 136.25 -159.223632812 l 1
 29.90625 -201.05078125 l 2
EndSplineSet
Validated: 1
EndChar

StartChar: accidentals.natural
Encoding: 57679 57679 36
Width: 154
VWidth: 900
Flags: W
VStem: 8.65234 28.8477<-90.7764 51.7236 159.224 394.037> 136.25 31.5625<-377.494 -159.224 -51.7236 90.7764>
LayerCount: 2
Fore
SplineSet
29.90625 -201.05078125 m 2
 23.5400390625 -203.515625 18.361328125 -203.560546875 14.478515625 -201.45703125 c 0
 10.595703125 -199.353515625 8.654296875 -195.46484375 8.654296875 -189.793945312 c 2
 8.65234375 377.697265625 l 2
 8.65234375 390.197265625 11.771484375 394.0625 24.271484375 394.0625 c 0
 36.771484375 394.0625 37.5 387.5 37.5 375 c 2
 37.5 159.223632812 l 1
 150.103515625 201.875 l 2
 164.271484375 206.37890625 167.599609375 201.376953125 167.60546875 189.3671875 c 2
 167.8125 -357.5 l 2
 167.8125 -370 164.89453125 -377.5 152.39453125 -377.5 c 0
 139.89453125 -377.5 136.25 -368.75 136.25 -356.25 c 2
 136.25 -159.223632812 l 1
 29.90625 -201.05078125 l 2
37.5 -90.7763671875 m 1
 136.25 -51.7236328125 l 1
 136.25 90.7763671875 l 1
 37.5 51.7236328125 l 1
 37.5 -90.7763671875 l 1
EndSplineSet
Validated: 1
EndChar

StartChar: accidentals.natural.arrowup
Encoding: 57680 57680 37
Width: 251
Flags: W
VStem: 74 38<-93 53 163 367> 214 38<-383.982 -163 -53 93>
LayerCount: 2
Fore
SplineSet
112 -93 m 1
 214 -53 l 1
 214 93 l 1
 112 53 l 1
 112 -93 l 1
96 -209 m 2
 89 -212 84 -211 80 -209 c 0
 76 -207 74 -203 74 -197 c 2
 74 367 l 1
 61 362 45 355 24 342 c 0
 21 340 18 339 15 339 c 0
 6 339 -1 344 -1 354 c 0
 -1 360 2 364 4 368 c 0
 36 419 60 480 76 548 c 0
 79 563 81 565 88 568 c 0
 90 569 93 570 95 570 c 0
 99 570 103 568 106 565 c 0
 109 562 109 561 111 552 c 0
 125 488 153 419 185 368 c 0
 187 364 189 359 189 354 c 0
 189 344 183 339 174 339 c 0
 171 339 167 340 164 342 c 0
 143 354 127 361 112 367 c 1
 112 163 l 1
 230 209 l 2
 245 214 252 210 252 197 c 2
 252 -365 l 2
 252 -378 245 -384 232 -384 c 0
 219 -384 214 -378 214 -365 c 2
 214 -163 l 1
 96 -209 l 2
EndSplineSet
Validated: 1
EndChar

StartChar: accidentals.natural.arrowdown
Encoding: 57681 57681 38
Width: 251
Flags: W
VStem: 0 38<-93 53 163 402.982> 140 38<-342 -163 -53 93>
LayerCount: 2
Fore
SplineSet
38 -93 m 1
 140 -53 l 1
 140 93 l 1
 38 53 l 1
 38 -93 l 1
21 -209 m 2
 14 -212 10 -211 6 -209 c 0
 2 -207 0 -203 0 -197 c 2
 0 384 l 2
 0 397 7 403 20 403 c 0
 33 403 38 397 38 384 c 2
 38 163 l 1
 156 209 l 2
 171 214 178 210 178 197 c 2
 178 -343 l 1
 191 -338 207 -330 229 -316 c 0
 232 -314 235 -313 238 -313 c 0
 247 -313 254 -320 254 -330 c 0
 254 -336 251 -339 249 -343 c 0
 217 -394 193 -455 177 -523 c 0
 174 -538 172 -540 165 -543 c 0
 163 -544 160 -545 158 -545 c 0
 154 -545 149 -543 146 -540 c 0
 143 -537 144 -536 142 -527 c 0
 128 -463 100 -394 68 -343 c 0
 66 -339 63 -335 63 -330 c 0
 63 -320 70 -313 79 -313 c 0
 82 -313 86 -314 89 -316 c 0
 110 -328 126 -336 140 -342 c 1
 140 -163 l 1
 21 -209 l 2
EndSplineSet
Validated: 1
EndChar

StartChar: accidentals.natural.arrowboth
Encoding: 57682 57682 39
Width: 251
Flags: W
VStem: 0 38<-93 53 163 367> 140 38<-342 -163 -53 93>
LayerCount: 2
Fore
SplineSet
38 -93 m 1
 140 -53 l 1
 140 93 l 1
 38 53 l 1
 38 -93 l 1
21 -209 m 2
 14 -212 10 -211 6 -209 c 0
 2 -207 0 -203 0 -197 c 2
 0 367 l 1
 -13 362 -29 355 -50 342 c 0
 -53 340 -57 339 -60 339 c 0
 -69 339 -75 344 -75 354 c 0
 -75 360 -72 364 -70 368 c 0
 -38 419 -14 480 2 548 c 0
 5 563 7 565 14 568 c 0
 16 569 19 570 21 570 c 0
 25 570 29 568 32 565 c 0
 35 562 35 561 37 552 c 0
 51 488 78 419 110 368 c 0
 112 364 115 359 115 354 c 0
 115 344 109 339 100 339 c 0
 97 339 94 340 91 342 c 0
 70 354 53 361 38 367 c 1
 38 163 l 1
 156 209 l 2
 171 214 178 210 178 197 c 2
 178 -343 l 1
 191 -338 207 -330 229 -316 c 0
 232 -314 235 -313 238 -313 c 0
 247 -313 254 -320 254 -330 c 0
 254 -336 251 -339 249 -343 c 0
 217 -394 193 -455 177 -523 c 0
 174 -538 172 -540 165 -543 c 0
 163 -544 160 -545 158 -545 c 0
 154 -545 149 -543 146 -540 c 0
 143 -537 144 -536 142 -527 c 0
 128 -463 100 -394 68 -343 c 0
 66 -339 63 -335 63 -330 c 0
 63 -320 70 -313 79 -313 c 0
 82 -313 86 -314 89 -316 c 0
 110 -328 126 -336 140 -342 c 1
 140 -163 l 1
 21 -209 l 2
EndSplineSet
Validated: 1
EndChar

StartChar: rests.2
Encoding: 57693 57693 40
Width: 268
Flags: W
VStem: 0 106<-279.474 -203.623> 42 120<-13.5 83.5> 149 120<146 236>
LayerCount: 2
Fore
SplineSet
63 395 m 0x20
 63 399 65 403 68 406 c 0
 71 409 75 411 79 411 c 0
 86 411 94 405 104 393 c 1
 258 186 l 2
 266 176 269 165 269 152 c 0x20
 269 140 264 130 252 122 c 0
 193 81 162 39 162 -6 c 0x40
 162 -21 167 -39 177 -60 c 0
 187 -81 198 -99 208 -114 c 0
 218 -129 235 -152 257 -182 c 0
 262 -188 264 -193 264 -198 c 0
 264 -205 259 -209 250 -209 c 0
 249 -209 241 -205 228 -197 c 0
 215 -189 202 -186 188 -186 c 0
 166 -186 146 -191 130 -202 c 0
 114 -213 106 -229 106 -248 c 0
 106 -280 127 -310 171 -338 c 0
 177 -342 181 -348 181 -355 c 0
 181 -358 179 -360 177 -363 c 0
 175 -366 172 -367 169 -367 c 0
 165 -367 161 -366 157 -365 c 0
 141 -360 125 -354 109 -347 c 0
 93 -340 77 -329 59 -317 c 0
 41 -305 27 -289 16 -271 c 0
 5 -253 0 -233 0 -212 c 0x80
 0 -182 12 -156 36 -132 c 0
 60 -108 87 -97 116 -97 c 0
 145 -97 163 -101 173 -109 c 1
 55 43 l 2
 47 54 42 65 42 77 c 0x40
 42 90 51 102 69 116 c 0
 122 156 149 193 149 227 c 0
 149 245 144 264 135 282 c 0
 126 300 104 333 71 377 c 0
 66 384 63 390 63 395 c 0x20
EndSplineSet
Validated: 1
EndChar

StartChar: rests.2classical
Encoding: 57694 57694 41
Width: 285
Flags: W
HStem: 55 145<158.274 259.153>
VStem: 137 149<89.4724 177.698>
LayerCount: 2
Fore
SplineSet
1 158 m 2
 0 160 0 161 0 163 c 0
 0 170 5 173 14 173 c 0
 20 173 25 171 29 166 c 0
 45 148 64 131 88 116 c 0
 112 101 135 93 157 89 c 1
 144 99 137 114 137 134 c 0
 137 150 144 164 158 178 c 0
 172 192 191 200 213 200 c 0
 234 200 251 192 265 177 c 0
 279 162 286 146 286 129 c 0
 286 106 278 88 260 75 c 0
 242 62 220 55 193 55 c 0
 151 55 112 63 76 82 c 1
 237 -234 l 2
 239 -239 240 -243 240 -248 c 0
 240 -255 238 -261 233 -265 c 0
 228 -269 222 -271 215 -271 c 0
 204 -271 196 -266 191 -255 c 2
 1 158 l 2
EndSplineSet
Validated: 1
EndChar

StartChar: rests.5
Encoding: 57695 57695 42
Width: 412
Flags: W
HStem: -203 144<26.8467 128.43> 53 144<90.8467 191.341> 309 145<154.847 255.34>
VStem: 0 149<-168.528 -80.7039> 64 149<87.4717 175.297> 128 149<343.472 431.297>
LayerCount: 2
Fore
SplineSet
296 96 m 1xf0
 275 84 251 74 225 65 c 0
 199 56 176 53 157 53 c 0
 130 53 108 58 90 72 c 0
 72 86 64 105 64 128 c 0
 64 146 71 161 85 176 c 0
 99 191 117 197 138 197 c 0
 160 197 178 192 192 177 c 0
 206 162 213 148 213 132 c 0xe8
 213 111 207 97 193 87 c 1
 237 94 277 117 312 154 c 1
 367 356 l 1
 346 343 321 333 293 323 c 0
 265 313 242 309 222 309 c 0
 195 309 172 315 154 329 c 0
 136 343 128 361 128 384 c 0
 128 402 134 417 148 432 c 0
 162 447 180 454 201 454 c 0
 223 454 242 448 256 433 c 0
 270 418 277 404 277 388 c 0xe4
 277 367 271 353 257 343 c 1
 279 347 303 355 326 370 c 0
 349 385 369 401 385 420 c 0
 389 426 393 429 400 429 c 0
 409 429 413 424 413 416 c 0
 413 415 413 413 413 412 c 2
 200 -507 l 2
 196 -523 186 -531 168 -531 c 0
 159 -531 151 -529 144 -523 c 0
 137 -517 134 -510 134 -501 c 0
 134 -498 134 -494 135 -491 c 2
 225 -164 l 1
 175 -190 131 -203 93 -203 c 0
 66 -203 44 -198 26 -184 c 0
 8 -170 0 -152 0 -129 c 0xf0
 0 -111 7 -95 21 -80 c 0
 35 -65 52 -59 73 -59 c 0
 95 -59 114 -65 128 -80 c 0xe4
 142 -95 149 -108 149 -124 c 0
 149 -145 143 -159 129 -169 c 1
 168 -162 205 -142 239 -110 c 1
 296 96 l 1xf0
EndSplineSet
Validated: 1
EndChar

StartChar: rests.6
Encoding: 57696 57696 43
Width: 445
Flags: W
HStem: -203 144<26.8467 128.651> 53 144<80.846 181.34> 309 145<134.847 235.597> 564 146<188.847 288.604>
VStem: 0 149<-168.528 -80.7039> 54 149<87.4717 175.297> 107 150<343.472 432.697> 161 150<599.472 687.995>
LayerCount: 2
Fore
SplineSet
400 612 m 1xf2
 379 599 354 589 326 579 c 0
 298 569 275 564 255 564 c 0
 228 564 206 571 188 585 c 0
 170 599 161 617 161 640 c 0
 161 658 168 673 182 688 c 0
 196 703 213 710 234 710 c 0
 256 710 275 703 289 688 c 0
 303 673 311 660 311 644 c 0
 311 623 305 609 291 599 c 1
 313 603 336 611 359 626 c 0
 382 641 402 657 418 676 c 0
 422 682 427 685 434 685 c 0
 443 685 446 681 446 673 c 0
 446 672 446 669 446 668 c 2
 221 -507 l 2
 218 -525 207 -534 188 -534 c 0
 177 -534 167 -530 158 -523 c 0
 149 -516 145 -509 145 -498 c 0
 145 -495 145 -493 146 -490 c 2
 221 -166 l 1
 172 -190 129 -203 93 -203 c 0
 66 -203 44 -198 26 -184 c 0
 8 -170 0 -152 0 -129 c 0
 0 -111 7 -95 21 -80 c 0
 35 -65 52 -59 73 -59 c 0
 95 -59 114 -65 128 -80 c 0
 142 -95 149 -108 149 -124 c 0xf9
 149 -145 143 -159 129 -169 c 1
 164 -163 199 -145 232 -117 c 1
 280 94 l 1
 229 67 185 53 146 53 c 0
 119 53 98 58 80 72 c 0
 62 86 54 105 54 128 c 0
 54 146 60 161 74 176 c 0
 88 191 106 197 127 197 c 0
 149 197 168 192 182 177 c 0
 196 162 203 148 203 132 c 0xf4
 203 111 197 97 183 87 c 1
 222 94 259 113 293 145 c 1
 341 353 l 1
 320 341 295 330 269 321 c 0
 243 312 220 309 201 309 c 0
 174 309 152 315 134 329 c 0
 116 343 107 361 107 384 c 0
 107 402 114 417 128 432 c 0
 142 447 160 454 181 454 c 0
 203 454 221 448 235 433 c 0
 249 418 257 404 257 388 c 0
 257 367 251 353 237 343 c 1
 279 350 319 371 354 407 c 1
 400 612 l 1xf2
EndSplineSet
Validated: 1
EndChar

StartChar: rests.7
Encoding: 57697 57697 44
Width: 468
Flags: W
HStem: -203 144<26.8467 127.833> 53 144<72.8474 173.34> 309 145<118.847 220.137> 564 146<164.847 266.859> 821 145<211.846 311.128>
VStem: 0 149<-168.528 -80.7039> 46 149<87.4717 175.297> 92 149<343.472 432.697> 139 148<599.472 687.297> 153 77<-527.521 -465.088> 185 148<854.553 944.386>
LayerCount: 2
Fore
SplineSet
424 868 m 1xf880
 403 855 377 845 349 835 c 0
 321 825 297 821 277 821 c 0
 250 821 229 827 211 841 c 0
 193 855 185 873 185 896 c 0
 185 914 191 928 205 943 c 0
 219 958 237 966 258 966 c 0
 280 966 298 959 312 944 c 0
 326 929 333 915 333 899 c 0xf820
 333 878 327 864 313 854 c 1
 335 858 360 867 383 882 c 0
 406 897 425 913 441 932 c 0
 445 938 450 940 457 940 c 0
 466 940 470 937 470 929 c 0
 470 928 469 925 469 924 c 2
 230 -507 l 2
 227 -525 217 -533 197 -533 c 0
 185 -533 175 -529 166 -522 c 0
 157 -515 153 -507 153 -496 c 0
 153 -494 153 -491 153 -489 c 2
 218 -168 l 1
 170 -191 128 -203 93 -203 c 0
 66 -203 44 -198 26 -184 c 0
 8 -170 0 -152 0 -129 c 0
 0 -111 7 -95 21 -80 c 0
 35 -65 52 -59 73 -59 c 0
 95 -59 114 -65 128 -80 c 0
 142 -95 149 -108 149 -124 c 0xfc40
 149 -145 143 -159 129 -169 c 1
 162 -163 195 -148 227 -122 c 1
 269 91 l 1
 219 66 177 53 140 53 c 0
 113 53 90 58 72 72 c 0
 54 86 46 105 46 128 c 0
 46 146 52 161 66 176 c 0
 80 191 98 197 119 197 c 0
 141 197 160 192 174 177 c 0
 188 162 195 148 195 132 c 0xfa
 195 111 190 97 176 87 c 1
 211 93 245 110 278 139 c 1
 320 350 l 1
 269 323 225 309 186 309 c 0
 159 309 136 315 118 329 c 0
 100 343 92 361 92 384 c 0
 92 402 99 417 113 432 c 0
 127 447 145 454 166 454 c 0
 188 454 206 448 220 433 c 0
 234 418 241 404 241 388 c 0xf9
 241 367 236 353 222 343 c 1
 260 349 296 368 330 400 c 1
 372 609 l 1
 351 597 327 587 300 578 c 0
 273 569 250 564 231 564 c 0
 204 564 182 571 164 585 c 0
 146 599 139 617 139 640 c 0
 139 658 145 673 159 688 c 0
 173 703 191 710 212 710 c 0
 234 710 253 703 267 688 c 0
 281 673 287 660 287 644 c 0
 287 623 282 609 268 599 c 1
 310 606 348 627 383 662 c 1
 424 868 l 1xf880
EndSplineSet
Validated: 1
EndChar

StartChar: rests.3
Encoding: 57700 57700 45
Width: 224
Flags: W
HStem: 53.3633 33.2275<126.262 174.556>
VStem: 0 145.598<88.1119 174.256> 43.8096 36.79<-262.648 -246.962>
LayerCount: 2
Fore
SplineSet
265.59765625 156.788085938 m 2xc0
 80.599609375 -246.961914062 l 2
 75.50390625 -257.969726562 67.4453125 -262.775390625 60.166015625 -262.775390625 c 3
 51.4248046875 -262.775390625 43.8095703125 -255.84375 43.8095703125 -244.400390625 c 3xa0
 43.8095703125 -239.70703125 45.08984375 -234.255859375 48.099609375 -228.211914062 c 2
 204.932617188 80.5380859375 l 1
 169.703125 62.4208984375 131.7265625 53.36328125 91 53.36328125 c 3
 41.642578125 53.36328125 0 78.33203125 0 126.25 c 3
 0 162.797851562 33.3095703125 194.8515625 71.662109375 194.8515625 c 3
 109.540039062 194.8515625 145.59765625 165.6875 145.59765625 130.538085938 c 3
 145.59765625 110.958984375 142.407226562 86.5908203125 126.26171875 86.5908203125 c 3
 148.272460938 86.5908203125 170.31640625 99.1689453125 193.271484375 113.58203125 c 0
 216.2265625 127.99609375 230.310546875 145.25 246.84765625 161.788085938 c 0
 249.8359375 164.776367188 253.865234375 166.111328125 257.484375 166.111328125 c 3
 262.267578125 166.111328125 266.3359375 163.779296875 266.3359375 159.853515625 c 3
 266.3359375 158.91796875 266.104492188 157.89453125 265.59765625 156.788085938 c 2xc0
EndSplineSet
Validated: 1
EndChar

StartChar: rests.4
Encoding: 57701 57701 46
Width: 383
Flags: W
HStem: -203 144<26.8467 127.267> 53 144<124.846 225.34>
VStem: 0 149<-169.528 -80.3027> 76 57<-532.066 -512> 98 149<87.4717 175.297>
LayerCount: 2
Fore
SplineSet
209 -177 m 1xd0
 174 -196 134 -203 93 -203 c 0
 66 -203 44 -198 26 -184 c 0
 8 -170 0 -152 0 -129 c 0
 0 -111 7 -96 21 -81 c 0
 35 -66 52 -59 73 -59 c 0
 95 -59 114 -65 128 -80 c 0
 142 -95 149 -108 149 -124 c 0xe0
 149 -145 143 -160 129 -170 c 1
 164 -164 199 -145 233 -115 c 1
 316 86 l 1
 273 65 231 53 190 53 c 0
 163 53 142 58 124 72 c 0
 106 86 98 105 98 128 c 0
 98 146 104 161 118 176 c 0
 132 191 150 197 171 197 c 0
 193 197 212 192 226 177 c 0
 240 162 247 148 247 132 c 0xc8
 247 111 241 97 227 87 c 1
 265 93 307 119 354 164 c 0
 360 169 365 172 370 172 c 0
 379 172 384 168 384 161 c 0
 384 160 383 156 381 152 c 2
 133 -512 l 2
 128 -526 119 -533 105 -533 c 0
 97 -533 91 -530 85 -525 c 0
 79 -520 76 -513 76 -505 c 0
 76 -501 77 -496 79 -491 c 2
 209 -177 l 1xd0
EndSplineSet
Validated: 1
EndChar

StartChar: noteheads.s0
Encoding: 57705 57705 47
Width: 382
VWidth: 1125
Flags: W
HStem: -141.25 25.167<155.908 234.685> 116.084 25.166<92.4595 172.704>
VStem: -42.375 109.717<-30.4001 72.8872> 260.408 120.967<-72.8871 30.4003>
LayerCount: 2
Fore
SplineSet
381.375 0 m 0
 381.375 -45.833984375 362.833984375 -80.833984375 325.75 -105 c 0
 288.666015625 -129.166015625 238.875 -141.25 176.375 -141.25 c 0
 106.375 -141.25 52.416015625 -126.25 14.5 -96.25 c 0
 -23.416015625 -66.25 -42.375 -34.166015625 -42.375 0 c 0
 -42.375 45.833984375 -23.833984375 80.833984375 13.25 105 c 0
 50.333984375 129.166015625 100.125 141.25 162.625 141.25 c 0
 232.625 141.25 286.583984375 126.25 324.5 96.25 c 0
 362.416015625 66.25 381.375 34.166015625 381.375 0 c 0
125.995117188 116.083984375 m 0
 93.9052734375 116.083984375 67.341796875 85.0283203125 67.341796875 53.7646484375 c 0
 67.341796875 -21.05078125 125.438476562 -116.083007812 201.754882812 -116.083007812 c 0
 233.844726562 -116.083007812 260.408203125 -85.0283203125 260.408203125 -53.7646484375 c 0
 260.408203125 21.05078125 202.310546875 116.083984375 125.995117188 116.083984375 c 0
EndSplineSet
Validated: 1
EndChar

StartChar: accidentals.1
Encoding: 57708 57708 48
Width: 253
Flags: W
VStem: 0 175<-153.656 -95.5156 102.344 160.484> 64 40<-366.996 -188 -63 67 192 354.996>
LayerCount: 2
Fore
SplineSet
64 -188 m 1x40
 21 -205 l 2
 7 -210 0 -208 0 -194 c 2
 0 -114 l 2x80
 0 -107 6 -102 18 -97 c 2
 64 -78 l 1
 64 67 l 1x40
 21 51 l 2
 7 46 0 48 0 62 c 2
 0 142 l 2x80
 0 149 6 154 18 159 c 2
 64 178 l 1
 64 336 l 2
 64 349 71 355 84 355 c 0
 97 355 104 349 104 336 c 2
 104 192 l 1x40
 153 213 l 1
 168 217 175 213 175 201 c 2
 175 121 l 2x80
 175 112 168 108 155 103 c 2
 104 82 l 1
 104 -63 l 1x40
 153 -44 l 1
 168 -40 175 -43 175 -55 c 2
 175 -135 l 2x80
 175 -144 168 -148 155 -153 c 2
 104 -174 l 1
 104 -348 l 2
 104 -361 97 -367 84 -367 c 0
 71 -367 64 -361 64 -348 c 2
 64 -188 l 1x40
EndSplineSet
Validated: 1
EndChar

StartChar: accidentals.sharp.slashslash.stem
Encoding: 57709 57709 49
Width: 253
Flags: W
VStem: 0 175<-153.656 -95.5156 102.344 160.484> 64 40<-366.996 -188 -63 67 192 354.996>
LayerCount: 2
Fore
SplineSet
64 -188 m 1x40
 21 -205 l 2
 7 -210 0 -208 0 -194 c 2
 0 -114 l 2x80
 0 -107 6 -102 18 -97 c 2
 64 -78 l 1
 64 67 l 1x40
 21 51 l 2
 7 46 0 48 0 62 c 2
 0 142 l 2x80
 0 149 6 154 18 159 c 2
 64 178 l 1
 64 336 l 2
 64 349 71 355 84 355 c 0
 97 355 104 349 104 336 c 2
 104 192 l 1x40
 153 213 l 1
 168 217 175 213 175 201 c 2
 175 121 l 2x80
 175 112 168 108 155 103 c 2
 104 82 l 1
 104 -63 l 1x40
 153 -44 l 1
 168 -40 175 -43 175 -55 c 2
 175 -135 l 2x80
 175 -144 168 -148 155 -153 c 2
 104 -174 l 1
 104 -348 l 2
 104 -361 97 -367 84 -367 c 0
 71 -367 64 -361 64 -348 c 2
 64 -188 l 1x40
EndSplineSet
Validated: 513
EndChar

StartChar: accidentals.sharp.slashslashslash.stem
Encoding: 57710 57710 50
Width: 253
Flags: W
VStem: 64 40<-366.996 -188 -104 -50 56 107 192 354.996>
LayerCount: 2
Fore
SplineSet
64 -188 m 1
 21 -205 l 2
 7 -210 0 -208 0 -194 c 2
 0 -154 l 2
 0 -147 6 -142 18 -137 c 2
 64 -118 l 1
 64 -50 l 1
 -29 -86 l 2
 -43 -91 -50 -88 -50 -74 c 2
 -50 -15 l 2
 -50 -8 -44 -2 -32 3 c 2
 64 40 l 1
 64 107 l 1
 21 91 l 2
 7 86 0 88 0 102 c 2
 0 142 l 2
 0 149 6 154 18 159 c 2
 64 178 l 1
 64 336 l 2
 64 349 71 355 84 355 c 0
 97 355 104 349 104 336 c 2
 104 192 l 1
 153 213 l 1
 168 217 175 213 175 201 c 2
 175 161 l 2
 175 152 168 148 155 143 c 2
 104 122 l 1
 104 56 l 1
 213 98 l 1
 228 102 234 98 234 86 c 2
 234 26 l 2
 234 17 229 13 216 8 c 2
 104 -35 l 1
 104 -104 l 1
 153 -84 l 1
 168 -80 175 -83 175 -95 c 2
 175 -135 l 2
 175 -144 168 -148 155 -153 c 2
 104 -174 l 1
 104 -348 l 2
 104 -361 97 -367 84 -367 c 0
 71 -367 64 -361 64 -348 c 2
 64 -188 l 1
EndSplineSet
Validated: 513
EndChar

StartChar: accidentals.2
Encoding: 57711 57711 51
Width: 234
VWidth: 900
Flags: W
VStem: 15 74.625<-210.618 -199.335 39.3823 50.6654> 60.375 29.25<-378.745 -211.07 -91.7395 38.9304 158.26 326.245> 182.875 29.25<-331.245 -161.923 -41.8593 88.0771 208.141 373.745>
LayerCount: 2
Fore
SplineSet
241.25 220 m 1x60
 255.416015625 224.166015625 262.5 220.416015625 262.5 208.75 c 2
 262.5 131.25 l 2
 262.5 122.916015625 255.9765625 117.40625 243.75 112.5 c 2
 212.125 99.8121257485 l 1
 212.125 -41.8592814371 l 1
 241.25 -30 l 1
 255.416015625 -25.833984375 262.5 -29.583984375 262.5 -41.25 c 2
 262.5 -118.75 l 2
 262.5 -127.083984375 255.9765625 -132.59375 243.75 -137.5 c 2
 212.125 -150.187874251 l 1
 212.125 -312.5 l 2
 212.125 -325 207.25 -331.25 197.5 -331.25 c 0
 187.75 -331.25 182.875 -325 182.875 -312.5 c 2
 182.875 -161.922904192 l 1
 89.625 -199.334580838 l 1xa0
 89.625 -360 l 2
 89.625 -372.5 84.75 -378.75 75 -378.75 c 0
 65.25 -378.75 60.375 -372.5 60.375 -360 c 2
 60.375 -211.069610778 l 1x60
 35 -221.25 l 2
 21.4853515625 -226.640625 15 -223.333984375 15 -210 c 2
 15 -132.5 l 2xa0
 15 -125.833984375 20.7373046875 -119.759765625 32.5 -115 c 2
 60.375 -103.649700599 l 1
 60.375 38.9303892216 l 1x60
 35 28.75 l 2
 21.4853515625 23.359375 15 26.666015625 15 40 c 2
 15 117.5 l 2xa0
 15 124.166015625 20.7373046875 130.240234375 32.5 135 c 2
 60.375 146.350299401 l 1
 60.375 307.5 l 2
 60.375 320 65.25 326.25 75 326.25 c 0
 84.75 326.25 89.625 320 89.625 307.5 c 2
 89.625 158.260479042 l 1
 182.875 196.230538922 l 1
 182.875 355 l 2
 182.875 367.5 187.75 373.75 197.5 373.75 c 0
 207.25 373.75 212.125 367.5 212.125 355 c 2
 212.125 208.140718563 l 1
 241.25 220 l 1x60
89.625 50.6654191617 m 1
 89.625 -91.7395209581 l 1x60
 182.875 -53.7694610778 l 1
 182.875 88.0770958084 l 1
 89.625 50.6654191617 l 1
EndSplineSet
Validated: 1
EndChar

StartChar: accidentals.sharp
Encoding: 57712 57712 52
Width: 234
VWidth: 900
Flags: W
VStem: 15 74.625<-210.618 -199.335 39.3823 50.6654> 60.375 29.25<-378.745 -211.07 -91.7395 38.9304 158.26 326.245> 182.875 29.25<-331.245 -161.923 -41.8593 88.0771 208.141 373.745>
LayerCount: 2
Fore
SplineSet
241.25 220 m 1x60
 255.416015625 224.166015625 262.5 220.416015625 262.5 208.75 c 2
 262.5 131.25 l 2
 262.5 122.916015625 255.9765625 117.40625 243.75 112.5 c 2
 212.125 99.8121257485 l 1
 212.125 -41.8592814371 l 1
 241.25 -30 l 1
 255.416015625 -25.833984375 262.5 -29.583984375 262.5 -41.25 c 2
 262.5 -118.75 l 2
 262.5 -127.083984375 255.9765625 -132.59375 243.75 -137.5 c 2
 212.125 -150.187874251 l 1
 212.125 -312.5 l 2
 212.125 -325 207.25 -331.25 197.5 -331.25 c 0
 187.75 -331.25 182.875 -325 182.875 -312.5 c 2
 182.875 -161.922904192 l 1
 89.625 -199.334580838 l 1xa0
 89.625 -360 l 2
 89.625 -372.5 84.75 -378.75 75 -378.75 c 0
 65.25 -378.75 60.375 -372.5 60.375 -360 c 2
 60.375 -211.069610778 l 1x60
 35 -221.25 l 2
 21.4853515625 -226.640625 15 -223.333984375 15 -210 c 2
 15 -132.5 l 2xa0
 15 -125.833984375 20.7373046875 -119.759765625 32.5 -115 c 2
 60.375 -103.649700599 l 1
 60.375 38.9303892216 l 1x60
 35 28.75 l 2
 21.4853515625 23.359375 15 26.666015625 15 40 c 2
 15 117.5 l 2xa0
 15 124.166015625 20.7373046875 130.240234375 32.5 135 c 2
 60.375 146.350299401 l 1
 60.375 307.5 l 2
 60.375 320 65.25 326.25 75 326.25 c 0
 84.75 326.25 89.625 320 89.625 307.5 c 2
 89.625 158.260479042 l 1
 182.875 196.230538922 l 1
 182.875 355 l 2
 182.875 367.5 187.75 373.75 197.5 373.75 c 0
 207.25 373.75 212.125 367.5 212.125 355 c 2
 212.125 208.140718563 l 1
 241.25 220 l 1x60
89.625 50.6654191617 m 1
 89.625 -91.7395209581 l 1x60
 182.875 -53.7694610778 l 1
 182.875 88.0770958084 l 1
 89.625 50.6654191617 l 1
EndSplineSet
Validated: 1
EndChar

StartChar: accidentals.sharp.slashslashslash.stemstem
Encoding: 57713 57713 53
Width: 253
Flags: W
VStem: 8 75<-215.768 -201 81.2598 95> 45 38<-387.995 -216 -131 -75 29 81 165 333.995> 170 81<-98 -82.3496 199 213.65> 170 39<-338.988 -168 -82 -29 76 128 214 382.952>
LayerCount: 2
Fore
SplineSet
170 -168 m 1x10
 83 -201 l 1x90
 83 -368 l 2
 83 -381 77 -388 64 -388 c 0
 51 -388 45 -381 45 -368 c 2
 45 -216 l 1x40
 28 -222 l 2
 14 -227 8 -224 8 -210 c 2
 8 -171 l 2x80
 8 -164 14 -157 26 -152 c 2
 45 -146 l 1
 45 -75 l 1
 -20 -99 l 2
 -34 -104 -40 -101 -40 -87 c 2
 -40 -27 l 2
 -40 -20 -34 -15 -22 -10 c 2
 45 15 l 1
 45 81 l 1x40
 28 74 l 2
 14 69 8 72 8 86 c 2
 8 125 l 2x80
 8 132 14 139 26 144 c 2
 45 150 l 1
 45 314 l 2
 45 327 51 334 64 334 c 0
 77 334 83 327 83 314 c 2
 83 165 l 1
 170 199 l 1x60
 170 373 l 2
 170 386 176 383 189 383 c 0
 202 383 209 376 209 363 c 2
 209 214 l 1x10
 229 222 l 1
 244 226 251 222 251 210 c 2
 251 171 l 2x20
 251 162 244 156 231 151 c 2
 209 143 l 1
 209 76 l 1
 277 102 l 1
 292 106 299 102 299 90 c 2
 299 30 l 2
 299 21 292 17 279 12 c 2
 209 -15 l 1
 209 -82 l 1x10
 229 -74 l 1
 244 -70 251 -74 251 -86 c 2
 251 -125 l 2x20
 251 -134 244 -140 231 -145 c 2
 209 -153 l 1
 209 -320 l 2
 209 -333 202 -339 189 -339 c 0
 176 -339 170 -323 170 -310 c 2
 170 -168 l 1x10
170 -98 m 1x60
 170 -29 l 1x10
 83 -61 l 1
 83 -131 l 1
 170 -98 l 1x60
83 95 m 1x90
 83 29 l 1x40
 170 62 l 1
 170 128 l 1
 83 95 l 1x90
EndSplineSet
Validated: 513
EndChar

StartChar: accidentals.sharp.arrowup
Encoding: 57714 57714 54
Width: 253
Flags: W
VStem: 0 83<-217.508 -202 38.4922 54> 45 38<-412 -218 -92 38 164 333.995> 170 85<-59 -44.3652 197 212.666> 170 39<-338.996 -169 -44 87 213 416>
LayerCount: 2
Fore
SplineSet
209 -320 m 2x10
 209 -333 202 -339 189 -339 c 0
 176 -339 170 -333 170 -320 c 2
 170 -169 l 1
 83 -202 l 1x90
 83 -412 l 1x40
 95 -407 110 -401 127 -391 c 0
 130 -389 132 -388 135 -388 c 0
 143 -388 149 -393 149 -402 c 0
 149 -407 147 -410 145 -414 c 0
 116 -460 91 -522 79 -580 c 0
 77 -588 77 -589 74 -592 c 0
 71 -595 67 -596 63 -596 c 0
 61 -596 60 -596 58 -595 c 0
 52 -592 50 -589 47 -576 c 0
 33 -514 11 -460 -18 -414 c 0
 -20 -410 -22 -407 -22 -402 c 0
 -22 -393 -17 -388 -9 -388 c 0
 -6 -388 -3 -389 0 -391 c 0x80
 20 -403 33 -408 45 -413 c 1
 45 -218 l 1x40
 21 -227 l 2
 7 -233 0 -229 0 -215 c 2
 0 -136 l 2x80
 0 -129 6 -123 18 -118 c 2
 45 -107 l 1
 45 38 l 1x40
 21 29 l 2
 7 23 0 27 0 41 c 2
 0 120 l 2x80
 0 127 6 134 18 139 c 2
 45 148 l 1
 45 314 l 2
 45 327 51 334 64 334 c 0
 77 334 83 327 83 314 c 2
 83 164 l 1
 170 197 l 1x60
 170 416 l 1x10
 159 411 146 406 128 395 c 0
 125 393 122 392 119 392 c 0
 111 392 105 397 105 406 c 0
 105 411 108 414 110 418 c 0
 139 464 161 518 175 580 c 0
 178 593 180 596 186 599 c 0
 188 600 189 600 191 600 c 0
 195 600 199 599 202 596 c 0
 205 593 205 592 207 584 c 0
 219 526 243 464 272 418 c 0
 274 414 277 411 277 406 c 0
 277 397 271 392 263 392 c 0
 260 392 258 393 255 395 c 0x20
 237 406 222 412 209 417 c 1
 209 213 l 1x10
 233 222 l 1
 248 226 255 222 255 210 c 2
 255 131 l 2x20
 255 122 248 115 235 111 c 2
 209 102 l 1
 209 -44 l 1x10
 233 -34 l 1
 248 -30 255 -34 255 -46 c 2
 255 -125 l 2x20
 255 -134 248 -141 235 -145 c 2
 209 -155 l 1
 209 -320 l 2x10
83 -92 m 1x40
 170 -59 l 1x60
 170 87 l 1
 83 54 l 1x90
 83 -92 l 1x40
EndSplineSet
Validated: 1
EndChar

StartChar: accidentals.sharp.arrowdown
Encoding: 57715 57715 55
Width: 253
Flags: W
VStem: 0 83<-217.508 -202 38.4922 54> 45 38<-437 -218 -92 38 164 333.995> 170 85<-59 -44.3652 197 212.666> 170 39<-338.996 -169 -44 87 213 383.995>
LayerCount: 2
Fore
SplineSet
209 -320 m 2x10
 209 -333 202 -339 189 -339 c 0
 176 -339 170 -333 170 -320 c 2
 170 -169 l 1
 83 -202 l 1x90
 83 -437 l 1x40
 95 -432 110 -424 127 -414 c 0
 130 -412 132 -412 135 -412 c 0
 143 -412 149 -417 149 -426 c 0
 149 -431 147 -434 145 -438 c 0
 116 -484 91 -546 79 -604 c 0
 77 -612 77 -612 74 -615 c 0
 71 -618 67 -620 63 -620 c 0
 61 -620 60 -619 58 -618 c 0
 52 -615 50 -614 47 -601 c 0
 33 -539 11 -484 -18 -438 c 0
 -20 -434 -22 -431 -22 -426 c 0
 -22 -417 -17 -412 -9 -412 c 0
 -6 -412 -3 -412 0 -414 c 0x80
 20 -426 33 -433 45 -438 c 1
 45 -218 l 1x40
 21 -227 l 2
 7 -233 0 -229 0 -215 c 2
 0 -136 l 2x80
 0 -129 6 -123 18 -118 c 2
 45 -107 l 1
 45 38 l 1x40
 21 29 l 2
 7 23 0 27 0 41 c 2
 0 120 l 2x80
 0 127 6 134 18 139 c 2
 45 148 l 1
 45 314 l 2
 45 327 51 334 64 334 c 0
 77 334 83 327 83 314 c 2
 83 164 l 1
 170 197 l 1x60
 170 364 l 2
 170 377 176 384 189 384 c 0
 202 384 209 377 209 364 c 2
 209 213 l 1x10
 233 222 l 1
 248 226 255 222 255 210 c 2
 255 131 l 2x20
 255 122 248 115 235 111 c 2
 209 102 l 1
 209 -44 l 1x10
 233 -34 l 1
 248 -30 255 -34 255 -46 c 2
 255 -125 l 2x20
 255 -134 248 -141 235 -145 c 2
 209 -155 l 1
 209 -320 l 2x10
83 -92 m 1x40
 170 -59 l 1x60
 170 87 l 1
 83 54 l 1x90
 83 -92 l 1x40
EndSplineSet
Validated: 1
EndChar

StartChar: accidentals.sharp.arrowboth
Encoding: 57716 57716 56
Width: 253
Flags: W
VStem: 0 83<-217.508 -202 38.4922 54> 45 38<-382.995 -218 -92 38 164 333.995> 170 85<-59 -44.3652 197 212.666> 170 39<-338.996 -169 -44 87 213 416>
LayerCount: 2
Fore
SplineSet
209 -320 m 2x10
 209 -333 202 -339 189 -339 c 0
 176 -339 170 -333 170 -320 c 2
 170 -169 l 1
 83 -202 l 1x90
 83 -363 l 2
 83 -376 77 -383 64 -383 c 0
 51 -383 45 -376 45 -363 c 2
 45 -218 l 1x40
 21 -227 l 2
 7 -233 0 -229 0 -215 c 2
 0 -136 l 2x80
 0 -129 6 -123 18 -118 c 2
 45 -107 l 1
 45 38 l 1x40
 21 29 l 2
 7 23 0 27 0 41 c 2
 0 120 l 2x80
 0 127 6 134 18 139 c 2
 45 148 l 1
 45 314 l 2
 45 327 51 334 64 334 c 0
 77 334 83 327 83 314 c 2
 83 164 l 1
 170 197 l 1x60
 170 416 l 1x10
 159 411 146 406 128 395 c 0
 125 393 122 392 119 392 c 0
 111 392 105 397 105 406 c 0
 105 411 108 414 110 418 c 0
 139 464 161 518 175 580 c 0
 178 593 180 596 186 599 c 0
 188 600 189 600 191 600 c 0
 195 600 199 599 202 596 c 0
 205 593 205 592 207 584 c 0
 219 526 243 464 272 418 c 0
 274 414 277 411 277 406 c 0
 277 397 271 392 263 392 c 0
 260 392 258 393 255 395 c 0x20
 237 406 222 412 209 417 c 1
 209 213 l 1x10
 233 222 l 1
 248 226 255 222 255 210 c 2
 255 131 l 2x20
 255 122 248 115 235 111 c 2
 209 102 l 1
 209 -44 l 1x10
 233 -34 l 1
 248 -30 255 -34 255 -46 c 2
 255 -125 l 2x20
 255 -134 248 -141 235 -145 c 2
 209 -155 l 1
 209 -320 l 2x10
83 -92 m 1x40
 170 -59 l 1x60
 170 87 l 1
 83 54 l 1x90
 83 -92 l 1x40
EndSplineSet
Validated: 1
EndChar

StartChar: accidentals.3
Encoding: 57717 57717 57
Width: 361
Flags: W
VStem: 45 38<-387.995 -221 -101 35 155 333.995> 158 38<-360.982 -191 -71 64 185 359.985> 271 38<-338.982 -163 -43 93 213 382.98>
CounterMasks: 1 e0
LayerCount: 2
Fore
SplineSet
83 -368 m 2
 83 -381 77 -388 64 -388 c 0
 51 -388 45 -381 45 -368 c 2
 45 -221 l 1
 21 -227 l 2
 6 -231 0 -229 0 -215 c 2
 0 -136 l 2
 0 -129 5 -121 18 -118 c 2
 45 -110 l 1
 45 35 l 1
 21 29 l 2
 6 25 0 27 0 41 c 2
 0 120 l 2
 0 127 5 136 18 139 c 2
 45 146 l 1
 45 314 l 2
 45 327 51 334 64 334 c 0
 77 334 83 327 83 314 c 2
 83 155 l 1
 158 175 l 1
 158 342 l 2
 158 355 165 360 178 360 c 0
 191 360 196 355 196 342 c 2
 196 185 l 1
 271 203 l 1
 271 363 l 2
 271 376 276 383 289 383 c 0
 302 383 309 376 309 363 c 2
 309 213 l 1
 341 222 l 2
 356 226 362 222 362 210 c 2
 362 131 l 2
 362 122 357 116 344 111 c 1
 309 103 l 1
 309 -43 l 1
 341 -34 l 2
 356 -30 362 -34 362 -46 c 2
 362 -125 l 2
 362 -134 357 -140 344 -145 c 1
 309 -153 l 1
 309 -320 l 2
 309 -333 302 -339 289 -339 c 0
 276 -339 271 -333 271 -320 c 2
 271 -163 l 1
 196 -182 l 1
 196 -342 l 2
 196 -355 191 -361 178 -361 c 0
 165 -361 158 -355 158 -342 c 2
 158 -191 l 1
 83 -211 l 1
 83 -368 l 2
271 -53 m 1
 271 93 l 1
 196 74 l 1
 196 -71 l 1
 271 -53 l 1
83 -101 m 1
 158 -82 l 1
 158 64 l 1
 83 45 l 1
 83 -101 l 1
EndSplineSet
Validated: 1
EndChar

StartChar: accidentals.sharp.slashslash.stemstemstem
Encoding: 57718 57718 58
Width: 361
Flags: W
VStem: 45 38<-387.995 -221 -101 35 155 333.995> 158 38<-360.982 -191 -71 64 185 359.985> 271 38<-338.982 -163 -43 93 213 382.98>
CounterMasks: 1 e0
LayerCount: 2
Fore
SplineSet
83 -368 m 2
 83 -381 77 -388 64 -388 c 0
 51 -388 45 -381 45 -368 c 2
 45 -221 l 1
 21 -227 l 2
 6 -231 0 -229 0 -215 c 2
 0 -136 l 2
 0 -129 5 -121 18 -118 c 2
 45 -110 l 1
 45 35 l 1
 21 29 l 2
 6 25 0 27 0 41 c 2
 0 120 l 2
 0 127 5 136 18 139 c 2
 45 146 l 1
 45 314 l 2
 45 327 51 334 64 334 c 0
 77 334 83 327 83 314 c 2
 83 155 l 1
 158 175 l 1
 158 342 l 2
 158 355 165 360 178 360 c 0
 191 360 196 355 196 342 c 2
 196 185 l 1
 271 203 l 1
 271 363 l 2
 271 376 276 383 289 383 c 0
 302 383 309 376 309 363 c 2
 309 213 l 1
 341 222 l 2
 356 226 362 222 362 210 c 2
 362 131 l 2
 362 122 357 116 344 111 c 1
 309 103 l 1
 309 -43 l 1
 341 -34 l 2
 356 -30 362 -34 362 -46 c 2
 362 -125 l 2
 362 -134 357 -140 344 -145 c 1
 309 -153 l 1
 309 -320 l 2
 309 -333 302 -339 289 -339 c 0
 276 -339 271 -333 271 -320 c 2
 271 -163 l 1
 196 -182 l 1
 196 -342 l 2
 196 -355 191 -361 178 -361 c 0
 165 -361 158 -355 158 -342 c 2
 158 -191 l 1
 83 -211 l 1
 83 -368 l 2
271 -53 m 1
 271 93 l 1
 196 74 l 1
 196 -71 l 1
 271 -53 l 1
83 -101 m 1
 158 -82 l 1
 158 64 l 1
 83 45 l 1
 83 -101 l 1
EndSplineSet
Validated: 513
EndChar

StartChar: accidentals.4
Encoding: 57719 57719 59
Width: 217
VWidth: 899
Flags: W
HStem: -135.327 107.368<11.0128 96.9251 174.4 260.311> -23.1553 46.9814<115.536 155.79> 28.6279 107.369<11.0128 96.9251 174.4 260.311>
VStem: 0 107.369<-124.314 -38.403 39.072 124.986> 112.172 46.9824<-19.7918 20.4628> 163.956 107.368<-124.314 -38.403 39.072 124.986>
LayerCount: 2
Fore
SplineSet
135.663085938 23.826171875 m 0
 151.083984375 23.826171875 163.236328125 52.537109375 163.956054688 101.666015625 c 0
 164.177734375 116.470703125 167.247070312 124.2578125 173.168945312 125.02734375 c 2
 251.963867188 135.264648438 l 2
 255.782226562 135.7578125 257.9609375 136.001953125 258.497070312 135.997070312 c 0
 267.048828125 135.99609375 271.32421875 131.719726562 271.32421875 123.168945312 c 0
 271.32421875 122.556640625 271.08203125 120.37890625 270.591796875 116.63671875 c 2
 260.352539062 37.8408203125 l 2
 259.583984375 31.9189453125 251.797851562 28.84765625 236.994140625 28.6279296875 c 0
 187.865234375 27.908203125 159.154296875 15.755859375 159.154296875 0.333984375 c 0
 159.154296875 -15.083984375 187.865234375 -27.236328125 236.994140625 -27.958984375 c 0
 251.797851562 -28.1787109375 259.583984375 -31.25 260.352539062 -37.171875 c 2
 270.591796875 -115.966796875 l 2
 271.088867188 -119.720703125 271.333984375 -121.8984375 271.32421875 -122.5 c 0
 271.323242188 -131.05078125 267.048828125 -135.327148438 258.497070312 -135.327148438 c 0
 257.8671875 -135.327148438 255.689453125 -135.083007812 251.963867188 -134.594726562 c 2
 173.168945312 -124.35546875 l 2
 167.247070312 -123.5859375 164.17578125 -115.80078125 163.956054688 -100.997070312 c 0
 163.234375 -51.8662109375 151.083007812 -23.1552734375 135.663085938 -23.1552734375 c 0
 120.243164062 -23.1552734375 108.090820312 -51.8662109375 107.369140625 -100.997070312 c 0
 107.149414062 -115.80078125 104.078125 -123.5859375 98.15625 -124.35546875 c 2
 19.361328125 -134.594726562 l 2
 15.638671875 -135.083007812 13.4609375 -135.327148438 12.828125 -135.327148438 c 0
 4.2763671875 -135.327148438 0 -131.05078125 0 -122.5 c 0
 0 -121.92578125 0.244140625 -119.748046875 0.732421875 -115.966796875 c 2
 10.9716796875 -37.171875 l 2
 11.740234375 -31.2490234375 19.52734375 -28.1787109375 34.3310546875 -27.958984375 c 0
 83.4609375 -27.236328125 112.171875 -15.083984375 112.171875 0.333984375 c 0
 112.171875 15.755859375 83.4609375 27.908203125 34.3310546875 28.6279296875 c 0
 19.52734375 28.84765625 11.740234375 31.9189453125 10.9716796875 37.8408203125 c 2
 0.732421875 116.63671875 l 2
 0.244140625 120.408203125 0 122.5859375 0 123.168945312 c 0
 0 131.720703125 4.2763671875 135.997070312 12.828125 135.997070312 c 0
 13.3681640625 135.997070312 15.5458984375 135.752929688 19.361328125 135.264648438 c 2
 98.15625 125.02734375 l 2
 104.080078125 124.2578125 107.149414062 116.469726562 107.369140625 101.666015625 c 0
 108.090820312 52.537109375 120.243164062 23.826171875 135.663085938 23.826171875 c 0
EndSplineSet
Validated: 1
EndChar

StartChar: accidentals.doublesharp
Encoding: 57720 57720 60
Width: 271
VWidth: 1123
Flags: W
HStem: -135.327 107.368<11.0129 96.9256 174.4 260.311> -27.301 55.2722<112.202 159.124> 28.6275 107.37<11.0128 96.9256 174.4 260.311>
VStem: 0 107.369<-124.314 -38.4028 39.0712 124.985> 108.026 55.2739<-23.1258 23.7962> 163.956 107.369<-124.314 -38.4028 39.0712 124.985>
LayerCount: 2
Fore
SplineSet
135.663085938 23.826171875 m 0
 151.083984375 23.826171875 163.236328125 52.537109375 163.956054688 101.666015625 c 0
 164.177734375 116.470703125 167.247070312 124.2578125 173.168945312 125.02734375 c 2
 251.963867188 135.264648438 l 2
 255.782226562 135.7578125 257.9609375 136.001953125 258.497070312 135.997070312 c 0
 267.048828125 135.99609375 271.32421875 131.719726562 271.32421875 123.168945312 c 0
 271.32421875 122.556640625 271.08203125 120.37890625 270.591796875 116.63671875 c 2
 260.352539062 37.8408203125 l 2
 259.583984375 31.9189453125 251.797851562 28.84765625 236.994140625 28.6279296875 c 0
 187.865234375 27.908203125 159.154296875 15.755859375 159.154296875 0.333984375 c 0
 159.154296875 -15.083984375 187.865234375 -27.236328125 236.994140625 -27.958984375 c 0
 251.797851562 -28.1787109375 259.583984375 -31.25 260.352539062 -37.171875 c 2
 270.591796875 -115.966796875 l 2
 271.088867188 -119.720703125 271.333984375 -121.8984375 271.32421875 -122.5 c 0
 271.323242188 -131.05078125 267.048828125 -135.327148438 258.497070312 -135.327148438 c 0
 257.8671875 -135.327148438 255.689453125 -135.083007812 251.963867188 -134.594726562 c 2
 173.168945312 -124.35546875 l 2
 167.247070312 -123.5859375 164.17578125 -115.80078125 163.956054688 -100.997070312 c 0
 163.234375 -51.8662109375 151.083007812 -23.1552734375 135.663085938 -23.1552734375 c 0
 120.243164062 -23.1552734375 108.090820312 -51.8662109375 107.369140625 -100.997070312 c 0
 107.149414062 -115.80078125 104.078125 -123.5859375 98.15625 -124.35546875 c 2
 19.361328125 -134.594726562 l 2
 15.638671875 -135.083007812 13.4609375 -135.327148438 12.828125 -135.327148438 c 0
 4.2763671875 -135.327148438 0 -131.05078125 0 -122.5 c 0
 0 -121.92578125 0.244140625 -119.748046875 0.732421875 -115.966796875 c 2
 10.9716796875 -37.171875 l 2
 11.740234375 -31.2490234375 19.52734375 -28.1787109375 34.3310546875 -27.958984375 c 0
 83.4609375 -27.236328125 112.171875 -15.083984375 112.171875 0.333984375 c 0
 112.171875 15.755859375 83.4609375 27.908203125 34.3310546875 28.6279296875 c 0
 19.52734375 28.84765625 11.740234375 31.9189453125 10.9716796875 37.8408203125 c 2
 0.732421875 116.63671875 l 2
 0.244140625 120.408203125 0 122.5859375 0 123.168945312 c 0
 0 131.720703125 4.2763671875 135.997070312 12.828125 135.997070312 c 0
 13.3681640625 135.997070312 15.5458984375 135.752929688 19.361328125 135.264648438 c 2
 98.15625 125.02734375 l 2
 104.080078125 124.2578125 107.149414062 116.469726562 107.369140625 101.666015625 c 0
 108.090820312 52.537109375 120.243164062 23.826171875 135.663085938 23.826171875 c 0
EndSplineSet
Validated: 1
EndChar

StartChar: flags.d3
Encoding: 57727 57727 61
Width: 308
VWidth: 1250
Flags: W
HStem: -0 21G<-17 0>
VStem: -17 17<0 41.6628> 219 31<432.07 631.11>
LayerCount: 2
Fore
SplineSet
47 124 m 0
 33 106 22 83 13 56 c 0
 4 29 -0 10 0 0 c 1
 -17 -0 l 1
 -17 200 l 1
 142 259 219 396 219 537 c 3
 219 608 192 678 160 718 c 0
 157 721 155 725 155 729 c 3
 155 737 162 746 170 746 c 3
 175 746 180 743 184 739 c 0
 225 688 250 603 250 528 c 0
 250 496 243 449 234 419 c 0
 200 297 114 216 47 124 c 0
EndSplineSet
Validated: 1
EndChar

StartChar: flags.u3
Encoding: 57728 57728 62
Width: 308
VWidth: 1250
Flags: W
HStem: -20 20G<-17 0>
VStem: -17 17<-41.6628 0> 219 31<-631.11 -432.07>
LayerCount: 2
Fore
SplineSet
47 -124 m 0
 114 -216 200 -297 234 -419 c 0
 243 -449 250 -496 250 -528 c 0
 250 -603 225 -688 184 -739 c 0
 180 -743 175 -746 170 -746 c 3
 162 -746 155 -737 155 -729 c 3
 155 -725 157 -721 160 -718 c 0
 192 -678 219 -608 219 -537 c 3
 219 -396 142 -259 -17 -200 c 1
 -17 0 l 1
 0 0 l 1
 -0 -10 4 -29 13 -56 c 0
 22 -83 33 -106 47 -124 c 0
EndSplineSet
Validated: 1
EndChar

StartChar: flags.d4
Encoding: 57729 57729 63
Width: 308
VWidth: 1250
Flags: W
HStem: 0 21G<-16.25 0>
VStem: -16.25 16.25<0 32.5325 180.32 247.151> 211.25 35<357.005 483.936 564.895 765.555>
LayerCount: 2
Fore
SplineSet
193.565429688 826.407226562 m 4
 230.625 776.875 248.125 732.5 248.125 648.75 c 4
 248.125 615 240.48828125 560.6953125 228.965820312 531.384765625 c 5
 240.48828125 502.15625 246.25 466.279296875 246.25 423.75 c 4
 246.25 271.33203125 120.083984375 182.059570312 45 96.25 c 4
 29.876953125 79.111328125 0 26.923828125 0 0 c 5
 -16.25 0 l 5
 -16.25 367.5 l 5
 23.75 380.833984375 71.458984375 414.375 126.875 468.125 c 4
 182.291015625 521.875 216.875 602.5 216.875 653.75 c 4
 216.875 723.75 198.125 767.5 169.346679688 805.469726562 c 4
 167.052734375 808.49609375 164.497070312 812.911132812 164.497070312 816.46484375 c 7
 164.497070312 824.7890625 171.532226562 833.856445312 179.9375 833.856445312 c 7
 184.828125 833.856445312 190.379882812 830.665039062 193.565429688 826.407226562 c 4
0 180.3203125 m 5
 40 190 88.521484375 228.94921875 136.875 278.75 c 4
 185.2265625 328.55078125 211.25 377.5 211.25 425 c 4
 211.25 446.541992188 209.513671875 466.372070312 206.03125 484.491210938 c 5
 163.634765625 411.541992188 97.63671875 367.329101562 42.5 306.25 c 4
 27.376953125 289.111328125 0 253.75 0 193.75 c 6
 0 180.3203125 l 5
EndSplineSet
Validated: 1
EndChar

StartChar: flags.u4
Encoding: 57730 57730 64
Width: 308
VWidth: 1250
Flags: W
HStem: -20 20G<-16.25 0>
VStem: -16.25 16.25<-247.151 -180.32 -32.5325 0> 216.875 31.25<-748.093 -582.992 -483.936 -374.591>
LayerCount: 2
Fore
SplineSet
193.565429688 -826.407226562 m 4
 190.379882812 -830.665039062 184.828125 -833.856445312 179.9375 -833.856445312 c 7
 171.532226562 -833.856445312 164.497070312 -824.7890625 164.497070312 -816.46484375 c 7
 164.497070312 -812.911132812 167.052734375 -808.49609375 169.346679688 -805.469726562 c 4
 198.125 -767.5 216.875 -723.75 216.875 -653.75 c 4
 216.875 -602.5 182.291015625 -521.875 126.875 -468.125 c 4
 71.4580078125 -414.375 23.75 -380.833984375 -16.25 -367.5 c 5
 -16.25 0 l 5
 0 0 l 5
 0 -26.923828125 29.876953125 -79.111328125 45 -96.25 c 4
 120.083984375 -182.059570312 246.25 -271.33203125 246.25 -423.75 c 4
 246.25 -466.278320312 240.48828125 -502.15625 228.965820312 -531.383789062 c 5
 240.48828125 -560.696289062 248.125 -615 248.125 -648.75 c 4
 248.125 -732.5 230.625 -776.875 193.565429688 -826.407226562 c 4
0 -180.3203125 m 5
 0 -193.75 l 6
 -0 -253.75 27.376953125 -289.111328125 42.5 -306.25 c 4
 97.63671875 -367.329101562 163.635742188 -411.541015625 206.03125 -484.491210938 c 5
 209.513671875 -466.372070312 211.25 -446.541015625 211.25 -425 c 4
 211.25 -377.5 185.2265625 -328.55078125 136.875 -278.75 c 4
 88.521484375 -228.94921875 40 -190 0 -180.3203125 c 5
EndSplineSet
Validated: 1
EndChar

StartChar: flags.d5
Encoding: 57731 57731 65
Width: 308
VWidth: 1250
Flags: W
HStem: 0 21G<-16.25 0>
VStem: -16.25 16.25<0 32.5325 180.32 226.283 374.07 440.901> 211.25 35<357.005 476.88 550.419 677.686 758.645 959.369>
LayerCount: 2
Fore
SplineSet
207.2421875 477.69140625 m 5
 163.930664062 402.803710938 93.71484375 345.672851562 45 290 c 4
 29.876953125 272.861328125 0 220.673828125 0 193.75 c 6
 0 180.3203125 l 5
 40 190 88.521484375 228.94921875 136.875 278.75 c 4
 185.2265625 328.55078125 211.25 377.5 211.25 425 c 4
 211.25 443.877929688 209.916992188 461.44140625 207.2421875 477.69140625 c 5
0 374.0703125 m 5
 40 383.75 88.521484375 422.69921875 136.875 472.5 c 4
 185.2265625 522.30078125 211.25 571.25 211.25 618.75 c 4
 211.25 640.291992188 209.513671875 660.122070312 206.03125 678.241210938 c 5
 163.634765625 605.291992188 97.63671875 561.079101562 42.5 500 c 4
 27.376953125 482.861328125 0 447.5 0 387.5 c 6
 0 374.0703125 l 5
194 1020 m 4
 231 971 248.125 926.25 248.125 842.5 c 4
 248.125 808.75 240.48828125 754.4453125 228.965820312 725.134765625 c 5
 240.48828125 695.90625 246.25 660.029296875 246.25 617.5 c 4
 246.25 584.72265625 240.415039062 554.8671875 230.508789062 527.3359375 c 5
 241.00390625 498.865234375 246.25 464.3359375 246.25 423.75 c 4
 246.25 271.33203125 120.083984375 182.059570312 45 96.25 c 4
 29.876953125 79.111328125 0 26.923828125 0 0 c 5
 -16.25 0 l 5
 -16.25 187.083984375 -16.25 374.166015625 -16.25 561.25 c 5
 23.75 574.583984375 71.458984375 608.125 126.875 661.875 c 4
 182.291015625 715.625 216.875 796.25 216.875 847.5 c 4
 216.875 917.5 198.125 961.25 169.346679688 999.219726562 c 4
 167.052734375 1002.24609375 164.497070312 1006.66113281 164.497070312 1010.21484375 c 4
 164.497070312 1018.5390625 171.532226562 1027.60644531 179.9375 1027.60644531 c 4
 184.828125 1027.60644531 190 1024 194 1020 c 4
EndSplineSet
Validated: 1
EndChar

StartChar: flags.u5
Encoding: 57732 57732 66
Width: 308
VWidth: 1250
Flags: W
HStem: -20 20G<-16.25 0>
VStem: -16.25 16.25<-440.901 -374.07 -226.283 -180.32 -32.5325 0> 211.25 35<-959.305 -758.645 -677.686 -550.419 -476.88 -357.005>
LayerCount: 2
Fore
SplineSet
193.565429688 -1020.15722656 m 0
 190.379882812 -1024.41503906 184.828125 -1027.60644531 179.9375 -1027.60644531 c 0
 171.532226562 -1027.60644531 164.497070312 -1018.5390625 164.497070312 -1010.21484375 c 0
 164.497070312 -1006.66113281 167.052734375 -1002.24609375 169.346679688 -999.219726562 c 0
 198.125 -961.25 216.875 -917.5 216.875 -847.5 c 0
 216.875 -796.25 182.291015625 -715.625 126.875 -661.875 c 0
 71.458984375 -608.125 23.75 -574.583984375 -16.25 -561.25 c 1
 -16.25 -374.166992188 -16.25 -187.083007812 -16.25 0 c 1
 0 0 l 1
 0 -26.923828125 29.876953125 -79.111328125 45 -96.25 c 0
 120.083984375 -182.059570312 246.25 -271.33203125 246.25 -423.75 c 0
 246.25 -464.3359375 241.002929688 -498.864257812 230.508789062 -527.3359375 c 1
 240.415039062 -554.866210938 246.25 -584.72265625 246.25 -617.5 c 0
 246.25 -660.029296875 240.48828125 -695.90625 228.965820312 -725.134765625 c 1
 240.48828125 -754.4453125 248.125 -808.75 248.125 -842.5 c 0
 248.125 -926.25 230.625 -970.625 193.565429688 -1020.15722656 c 0
0 -374.0703125 m 1
 0 -387.5 l 2
 0 -447.5 27.376953125 -482.861328125 42.5 -500 c 0
 97.63671875 -561.079101562 163.634765625 -605.291992188 206.03125 -678.241210938 c 1
 209.513671875 -660.122070312 211.25 -640.291992188 211.25 -618.75 c 0
 211.25 -571.25 185.2265625 -522.30078125 136.875 -472.5 c 0
 88.521484375 -422.69921875 40 -383.75 0 -374.0703125 c 1
207.243164062 -477.69140625 m 1
 209.916992188 -461.442382812 211.25 -443.877929688 211.25 -425 c 0
 211.25 -377.5 185.2265625 -328.55078125 136.875 -278.75 c 0
 88.521484375 -228.94921875 40 -190 0 -180.3203125 c 1
 0 -193.75 l 2
 0 -220.673828125 29.876953125 -272.861328125 45 -290 c 0
 93.71484375 -345.672851562 163.930664062 -402.803710938 207.243164062 -477.69140625 c 1
EndSplineSet
Validated: 1
EndChar

StartChar: flags.d6
Encoding: 57733 57733 67
Width: 308
VWidth: 1250
Flags: W
HStem: 0 21G<-16.25 0>
VStem: -16.25 16.25<0 32.5325 180.32 226.283 374.07 420.033 567.82 634.651> 211.25 35<357.005 476.88 550.419 670.63 744.169 871.436 952.395 1153.06>
LayerCount: 2
Fore
SplineSet
207.2421875 671.44140625 m 5
 163.930664062 596.553710938 93.71484375 539.422851562 45 483.75 c 4
 29.876953125 466.611328125 0 414.423828125 0 387.5 c 6
 0 374.0703125 l 5
 40 383.75 88.521484375 422.69921875 136.875 472.5 c 4
 185.2265625 522.30078125 211.25 571.25 211.25 618.75 c 4
 211.25 637.627929688 209.916992188 655.19140625 207.2421875 671.44140625 c 5
0 567.8203125 m 5
 40 577.5 88.521484375 616.44921875 136.875 666.25 c 4
 185.2265625 716.05078125 211.25 765 211.25 812.5 c 4
 211.25 834.041992188 209.513671875 853.872070312 206.03125 871.991210938 c 5
 163.634765625 799.041992188 97.63671875 754.829101562 42.5 693.75 c 4
 27.376953125 676.611328125 0 641.25 0 581.25 c 6
 0 567.8203125 l 5
193.565429688 1213.90722656 m 4
 230.625 1164.375 248.125 1120 248.125 1036.25 c 4
 248.125 1002.5 240.48828125 948.1953125 228.965820312 918.884765625 c 5
 240.48828125 889.65625 246.25 853.779296875 246.25 811.25 c 4
 246.25 778.47265625 240.415039062 748.6171875 230.508789062 721.0859375 c 5
 241.00390625 692.615234375 246.25 658.0859375 246.25 617.5 c 4
 246.25 584.72265625 240.415039062 554.8671875 230.508789062 527.3359375 c 5
 241.00390625 498.865234375 246.25 464.3359375 246.25 423.75 c 4
 246.25 271.33203125 120.083984375 182.059570312 45 96.25 c 4
 29.876953125 79.111328125 0 26.923828125 0 0 c 5
 -16.25 0 l 5
 -16.25 251.666015625 -16.25 503.333984375 -16.25 755 c 5
 23.75 768.333984375 71.458984375 801.875 126.875 855.625 c 4
 182.291015625 909.375 216.875 990 216.875 1041.25 c 4
 216.875 1111.25 198.125 1155 169.346679688 1192.96972656 c 4
 167.052734375 1195.99609375 164.497070312 1200.41113281 164.497070312 1203.96484375 c 4
 164.497070312 1212.2890625 171.532226562 1221.35644531 179.9375 1221.35644531 c 4
 184.828125 1221.35644531 190.379882812 1218.16503906 193.565429688 1213.90722656 c 4
207.2421875 477.69140625 m 5
 163.930664062 402.803710938 93.71484375 345.672851562 45 290 c 4
 29.876953125 272.861328125 0 220.673828125 0 193.75 c 6
 0 180.3203125 l 5
 40 190 88.521484375 228.94921875 136.875 278.75 c 4
 185.2265625 328.55078125 211.25 377.5 211.25 425 c 4
 211.25 443.877929688 209.916992188 461.44140625 207.2421875 477.69140625 c 5
EndSplineSet
Validated: 1
EndChar

StartChar: flags.u6
Encoding: 57734 57734 68
Width: 308
VWidth: 1250
Flags: W
HStem: -20 20G<-16.25 0>
VStem: -16.25 16.25<-634.651 -567.82 -420.033 -374.07 -226.283 -180.32 -32.5325 0> 211.25 35<-1153.06 -952.395 -871.436 -744.169 -670.63 -550.419 -476.88 -357.005>
LayerCount: 2
Fore
SplineSet
207.2421875 -671.44140625 m 5
 209.916992188 -655.19140625 211.25 -637.627929688 211.25 -618.75 c 4
 211.25 -571.25 185.2265625 -522.30078125 136.875 -472.5 c 4
 88.521484375 -422.69921875 40 -383.75 0 -374.0703125 c 5
 0 -387.5 l 6
 0 -414.423828125 29.876953125 -466.611328125 45 -483.75 c 4
 93.71484375 -539.422851562 163.930664062 -596.553710938 207.2421875 -671.44140625 c 5
0 -567.8203125 m 5
 0 -581.25 l 6
 0 -641.25 27.376953125 -676.611328125 42.5 -693.75 c 4
 97.63671875 -754.829101562 163.634765625 -799.041992188 206.03125 -871.991210938 c 5
 209.513671875 -853.872070312 211.25 -834.041992188 211.25 -812.5 c 4
 211.25 -765 185.2265625 -716.05078125 136.875 -666.25 c 4
 88.521484375 -616.44921875 40 -577.5 0 -567.8203125 c 5
193.565429688 -1213.90722656 m 4
 190.379882812 -1218.16503906 184.828125 -1221.35644531 179.9375 -1221.35644531 c 4
 171.532226562 -1221.35644531 164.497070312 -1212.2890625 164.497070312 -1203.96484375 c 4
 164.497070312 -1200.41113281 167.052734375 -1195.99609375 169.346679688 -1192.96972656 c 4
 198.125 -1155 216.875 -1111.25 216.875 -1041.25 c 4
 216.875 -990 182.291015625 -909.375 126.875 -855.625 c 4
 71.458984375 -801.875 23.75 -768.333984375 -16.25 -755 c 5
 -16.25 -503.333007812 -16.25 -251.666992188 -16.25 0 c 5
 0 0 l 5
 0 -26.923828125 29.876953125 -79.111328125 45 -96.25 c 4
 120.083984375 -182.059570312 246.25 -271.33203125 246.25 -423.75 c 4
 246.25 -464.3359375 241.002929688 -498.864257812 230.508789062 -527.3359375 c 5
 240.415039062 -554.866210938 246.25 -584.72265625 246.25 -617.5 c 4
 246.25 -658.0859375 241.00390625 -692.615234375 230.508789062 -721.0859375 c 5
 240.415039062 -748.6171875 246.25 -778.47265625 246.25 -811.25 c 4
 246.25 -853.779296875 240.48828125 -889.65625 228.965820312 -918.884765625 c 5
 240.48828125 -948.1953125 248.125 -1002.5 248.125 -1036.25 c 4
 248.125 -1120 230.625 -1164.375 193.565429688 -1213.90722656 c 4
207.243164062 -477.69140625 m 5
 209.916992188 -461.442382812 211.25 -443.877929688 211.25 -425 c 4
 211.25 -377.5 185.2265625 -328.55078125 136.875 -278.75 c 4
 88.521484375 -228.94921875 40 -190 0 -180.3203125 c 5
 0 -193.75 l 6
 0 -220.673828125 29.876953125 -272.861328125 45 -290 c 4
 93.71484375 -345.672851562 163.930664062 -402.803710938 207.243164062 -477.69140625 c 5
EndSplineSet
Validated: 1
EndChar

StartChar: flags.d7
Encoding: 57735 57735 69
Width: 308
VWidth: 1250
Flags: W
HStem: 0 21G<-16.25 0>
VStem: -16.25 16.25<0 32.5325 180.32 226.283 374.07 420.033 567.82 613.783 761.57 828.401> 211.25 35<357.005 476.88 550.419 670.63 744.169 864.38 937.919 1065.19 1146.14 1346.81>
LayerCount: 2
Fore
SplineSet
207.2421875 671.44140625 m 5
 163.930664062 596.553710938 93.71484375 539.422851562 45 483.75 c 4
 29.876953125 466.611328125 0 414.423828125 0 387.5 c 6
 0 374.0703125 l 5
 40 383.75 88.521484375 422.69921875 136.875 472.5 c 4
 185.2265625 522.30078125 211.25 571.25 211.25 618.75 c 4
 211.25 637.627929688 209.916992188 655.19140625 207.2421875 671.44140625 c 5
193.565429688 1407.65722656 m 4
 230.625 1358.125 248.125 1313.75 248.125 1230 c 4
 248.125 1196.25 240.48828125 1141.9453125 228.965820312 1112.63476562 c 5
 240.48828125 1083.40625 246.25 1047.52929688 246.25 1005 c 4
 246.25 972.22265625 240.415039062 942.3671875 230.508789062 914.8359375 c 5
 241.00390625 886.365234375 246.25 851.8359375 246.25 811.25 c 4
 246.25 778.47265625 240.415039062 748.6171875 230.508789062 721.0859375 c 5
 241.00390625 692.615234375 246.25 658.0859375 246.25 617.5 c 4
 246.25 584.72265625 240.415039062 554.8671875 230.508789062 527.3359375 c 5
 241.00390625 498.865234375 246.25 464.3359375 246.25 423.75 c 4
 246.25 271.33203125 120.083984375 182.059570312 45 96.25 c 4
 29.876953125 79.111328125 0 26.923828125 0 0 c 5
 -16.25 0 l 5
 -16.25 316.25 -16.25 632.5 -16.25 948.75 c 5
 23.75 962.083984375 71.458984375 995.625 126.875 1049.375 c 4
 182.291015625 1103.125 216.875 1183.75 216.875 1235 c 4
 216.875 1305 198.125 1348.75 169.346679688 1386.71972656 c 4
 167.052734375 1389.74609375 164.497070312 1394.16113281 164.497070312 1397.71484375 c 4
 164.497070312 1406.0390625 171.532226562 1415.10644531 179.9375 1415.10644531 c 4
 184.828125 1415.10644531 190.379882812 1411.91503906 193.565429688 1407.65722656 c 4
0 761.5703125 m 5
 40 771.25 88.521484375 810.19921875 136.875 860 c 4
 185.2265625 909.80078125 211.25 958.75 211.25 1006.25 c 4
 211.25 1027.79199219 209.513671875 1047.62207031 206.03125 1065.74121094 c 5
 163.634765625 992.791992188 97.63671875 948.579101562 42.5 887.5 c 4
 27.376953125 870.361328125 0 835 0 775 c 6
 0 761.5703125 l 5
207.2421875 865.19140625 m 5
 163.930664062 790.303710938 93.71484375 733.172851562 45 677.5 c 4
 29.876953125 660.361328125 0 608.173828125 0 581.25 c 6
 0 567.8203125 l 5
 40 577.5 88.521484375 616.44921875 136.875 666.25 c 4
 185.2265625 716.05078125 211.25 765 211.25 812.5 c 4
 211.25 831.377929688 209.916992188 848.94140625 207.2421875 865.19140625 c 5
207.2421875 477.69140625 m 5
 163.930664062 402.803710938 93.71484375 345.672851562 45 290 c 4
 29.876953125 272.861328125 0 220.673828125 0 193.75 c 6
 0 180.3203125 l 5
 40 190 88.521484375 228.94921875 136.875 278.75 c 4
 185.2265625 328.55078125 211.25 377.5 211.25 425 c 4
 211.25 443.877929688 209.916992188 461.44140625 207.2421875 477.69140625 c 5
EndSplineSet
Validated: 1
EndChar

StartChar: flags.u7
Encoding: 57736 57736 70
Width: 308
VWidth: 1250
Flags: W
HStem: -20 20G<-16.25 0>
VStem: -16.25 16.25<-828.401 -761.57 -613.783 -567.82 -420.033 -374.07 -226.283 -180.32 -32.5325 0> 211.25 35<-1346.81 -1146.14 -1065.19 -937.919 -864.38 -744.169 -670.63 -550.419 -476.88 -357.005>
LayerCount: 2
Fore
SplineSet
207.2421875 -671.44140625 m 1
 209.916992188 -655.19140625 211.25 -637.627929688 211.25 -618.75 c 0
 211.25 -571.25 185.2265625 -522.30078125 136.875 -472.5 c 0
 88.521484375 -422.69921875 40 -383.75 0 -374.0703125 c 1
 0 -387.5 l 2
 0 -414.423828125 29.876953125 -466.611328125 45 -483.75 c 0
 93.71484375 -539.422851562 163.930664062 -596.553710938 207.2421875 -671.44140625 c 1
193.565429688 -1407.65722656 m 0
 190.379882812 -1411.91503906 184.828125 -1415.10644531 179.9375 -1415.10644531 c 0
 171.532226562 -1415.10644531 164.497070312 -1406.0390625 164.497070312 -1397.71484375 c 0
 164.497070312 -1394.16113281 167.052734375 -1389.74609375 169.346679688 -1386.71972656 c 0
 198.125 -1348.75 216.875 -1305 216.875 -1235 c 0
 216.875 -1183.75 182.291015625 -1103.125 126.875 -1049.375 c 0
 71.458984375 -995.625 23.75 -962.083984375 -16.25 -948.75 c 1
 -16.25 -632.5 -16.25 -316.25 -16.25 0 c 1
 0 0 l 1
 0 -26.923828125 29.876953125 -79.111328125 45 -96.25 c 0
 120.083984375 -182.059570312 246.25 -271.33203125 246.25 -423.75 c 0
 246.25 -464.3359375 241.002929688 -498.864257812 230.508789062 -527.3359375 c 1
 240.415039062 -554.866210938 246.25 -584.72265625 246.25 -617.5 c 0
 246.25 -658.0859375 241.00390625 -692.615234375 230.508789062 -721.0859375 c 1
 240.415039062 -748.6171875 246.25 -778.47265625 246.25 -811.25 c 0
 246.25 -851.8359375 241.00390625 -886.365234375 230.508789062 -914.8359375 c 1
 240.415039062 -942.3671875 246.25 -972.22265625 246.25 -1005 c 0
 246.25 -1047.52929688 240.48828125 -1083.40625 228.965820312 -1112.63476562 c 1
 240.48828125 -1141.9453125 248.125 -1196.25 248.125 -1230 c 0
 248.125 -1313.75 230.625 -1358.125 193.565429688 -1407.65722656 c 0
0 -761.5703125 m 1
 0 -775 l 2
 0 -835 27.376953125 -870.361328125 42.5 -887.5 c 0
 97.63671875 -948.579101562 163.634765625 -992.791992188 206.03125 -1065.74121094 c 1
 209.513671875 -1047.62207031 211.25 -1027.79199219 211.25 -1006.25 c 0
 211.25 -958.75 185.2265625 -909.80078125 136.875 -860 c 0
 88.521484375 -810.19921875 40 -771.25 0 -761.5703125 c 1
207.2421875 -865.19140625 m 1
 209.916992188 -848.94140625 211.25 -831.377929688 211.25 -812.5 c 0
 211.25 -765 185.2265625 -716.05078125 136.875 -666.25 c 0
 88.521484375 -616.44921875 40 -577.5 0 -567.8203125 c 1
 0 -581.25 l 2
 0 -608.173828125 29.876953125 -660.361328125 45 -677.5 c 0
 93.71484375 -733.172851562 163.930664062 -790.303710938 207.2421875 -865.19140625 c 1
207.243164062 -477.69140625 m 1
 209.916992188 -461.442382812 211.25 -443.877929688 211.25 -425 c 0
 211.25 -377.5 185.2265625 -328.55078125 136.875 -278.75 c 0
 88.521484375 -228.94921875 40 -190 0 -180.3203125 c 1
 0 -193.75 l 2
 0 -220.673828125 29.876953125 -272.861328125 45 -290 c 0
 93.71484375 -345.672851562 163.930664062 -402.803710938 207.243164062 -477.69140625 c 1
EndSplineSet
Validated: 1
EndChar

StartChar: timesig.C22
Encoding: 57737 57737 71
Width: 439
VWidth: 750
Flags: W
HStem: -270 45<221.726 294.655> 236.25 33.75<221.726 292.641>
VStem: 0.299805 142.676<-97.1681 104.454> 191.726 30<-341.994 -269.304 -213.922 225.131 269.952 340.494> 255.6 157.551<80.1303 182.563> 356.8 50.5996<-156.679 -47.1325>
LayerCount: 2
Fore
SplineSet
206.725585938 340.5 m 0xf4
 214.895507812 340.5 221.725585938 331.962890625 221.725585938 321.75 c 2
 221.725585938 269.952148438 l 1
 223.046875 269.984375 224.372070312 270 225.700195312 270 c 0
 269.99609375 270 312.311523438 255.841796875 352.647460938 227.5390625 c 0
 392.982421875 199.228515625 413.150390625 165.466796875 413.150390625 126.25 c 0
 413.150390625 90.79296875 370.5234375 52.5 333.799804688 52.5 c 0
 294.3046875 52.5 255.599609375 78.974609375 255.599609375 117.5 c 0xf8
 255.599609375 161.896484375 269.850585938 191.75 314.850585938 203.625 c 1
 302.975585938 215.5 271.672851562 236.25 240.75 236.25 c 0
 233.959960938 236.25 227.627929688 235.853515625 221.725585938 235.033203125 c 1
 221.725585938 -224.485351562 l 1
 224.94140625 -224.830078125 228.274414062 -225 231.725585938 -225 c 0
 261.626953125 -225 280.924804688 -215.795898438 301.66796875 -197.387695312 c 0
 322.4140625 -178.978515625 336.6796875 -158.637695312 344.46484375 -136.362304688 c 0
 352.251953125 -114.086914062 356.36328125 -91.55078125 356.799804688 -68.75 c 0
 357.029296875 -56.7578125 361.357421875 -48.904296875 369.783203125 -45.1875 c 0
 378.209960938 -41.470703125 386.584960938 -42.0419921875 394.912109375 -46.9033203125 c 0
 403.23828125 -51.76171875 407.399414062 -58.6279296875 407.399414062 -67.5 c 0
 407.399414062 -87.7255859375 404.368164062 -108.79296875 398.3046875 -130.701171875 c 0
 392.23828125 -152.608398438 383.009765625 -174.36328125 370.62109375 -195.958007812 c 0
 358.228515625 -217.556640625 340.419921875 -235.296875 317.194335938 -249.177734375 c 0
 293.967773438 -263.05859375 267.302734375 -270 237.200195312 -270 c 0
 231.999023438 -270 226.838867188 -269.764648438 221.725585938 -269.303710938 c 1
 221.725585938 -323.25 l 2
 221.725585938 -333.46484375 214.895507812 -342 206.725585938 -342 c 0
 198.5546875 -342 191.725585938 -333.46484375 191.725585938 -323.25 c 2
 191.725585938 -263.961914062 l 1
 82.078125 -234.692382812 0.2998046875 -104.7109375 0.2998046875 0 c 0
 0.2998046875 108.06640625 80.1552734375 243.046875 191.725585938 266.4609375 c 1
 191.725585938 321.75 l 2
 191.725585938 331.962890625 198.555664062 340.5 206.725585938 340.5 c 0xf4
191.725585938 225.130859375 m 1
 150.931640625 200.845703125 142.975585938 134.517578125 142.975585938 4.25 c 0
 142.975585938 -122.727539062 155.96875 -189.473632812 191.725585938 -213.921875 c 1
 191.725585938 225.130859375 l 1
EndSplineSet
EndChar

StartChar: timesig.C44
Encoding: 57738 57738 72
Width: 438
VWidth: 750
Flags: W
HStem: -270 45<181.607 294.655> 236.25 33.75<184.953 292.931>
VStem: 0.299805 142.676<-97.1062 102.555> 255.6 157.551<80.1303 182.563> 356.8 50.5996<-156.679 -47.1325>
LayerCount: 2
Fore
SplineSet
0.2998046875 0 m 0xe8
 0.2998046875 118.75 96.7255859375 270 225.700195312 270 c 0
 269.99609375 270 312.311523438 255.841796875 352.647460938 227.5390625 c 0
 392.982421875 199.228515625 413.150390625 165.466796875 413.150390625 126.25 c 0
 413.150390625 90.79296875 370.5234375 52.5 333.799804688 52.5 c 0
 294.3046875 52.5 255.599609375 78.974609375 255.599609375 117.5 c 0xf0
 255.599609375 161.896484375 269.850585938 191.75 314.850585938 203.625 c 1
 302.975585938 215.5 271.672851562 236.25 240.75 236.25 c 0
 156.725585938 236.25 142.975585938 175.499023438 142.975585938 4.25 c 0
 142.975585938 -162.000976562 165.25 -225 231.725585938 -225 c 0
 261.626953125 -225 280.924804688 -215.795898438 301.66796875 -197.387695312 c 0
 322.4140625 -178.978515625 336.6796875 -158.637695312 344.46484375 -136.362304688 c 0
 352.251953125 -114.086914062 356.36328125 -91.55078125 356.799804688 -68.75 c 0
 357.029296875 -56.7578125 361.357421875 -48.904296875 369.783203125 -45.1875 c 0
 378.209960938 -41.470703125 386.584960938 -42.0419921875 394.912109375 -46.9033203125 c 0
 403.23828125 -51.76171875 407.399414062 -58.6279296875 407.399414062 -67.5 c 0
 407.399414062 -87.7255859375 404.368164062 -108.79296875 398.3046875 -130.701171875 c 0
 392.23828125 -152.608398438 383.009765625 -174.36328125 370.62109375 -195.958007812 c 0
 358.228515625 -217.556640625 340.419921875 -235.296875 317.194335938 -249.177734375 c 0
 293.967773438 -263.05859375 267.302734375 -270 237.200195312 -270 c 0
 105.475585938 -270 0.2998046875 -118.75 0.2998046875 0 c 0xe8
EndSplineSet
EndChar
